<svg width="245" height="245" viewBox="0 0 245 245" fill="none" xmlns="http://www.w3.org/2000/svg">
<path d="M217.814 124.498L233.464 125.707L232.735 135.135L230.39 134.954L230.904 128.302L226.908 127.993L226.473 133.616L224.128 133.435L224.563 127.812L219.945 127.455L219.412 134.346L217.067 134.165L217.814 124.498Z" fill="#F7F5F5"/>
<path d="M223.668 144.791L221.936 143.796L220.976 147.687L222.972 147.611C223.842 147.562 224.732 147.526 225.644 147.504C226.552 147.497 227.452 147.488 228.345 147.478L228.368 147.385C227.563 146.972 226.762 146.544 225.965 146.1C225.18 145.675 224.414 145.239 223.668 144.791ZM216.818 137.688L230.833 146.411L230.051 149.58L213.587 150.784L214.289 147.941L218.706 147.77L219.971 142.643L216.14 140.438L216.818 137.688Z" fill="#F7F5F5"/>
<path d="M209.9 159.59C210.326 158.624 210.922 157.767 211.688 157.021C212.447 156.289 213.315 155.728 214.292 155.336L215.369 157.594C214.66 157.894 214.007 158.305 213.409 158.829C212.826 159.358 212.389 159.953 212.099 160.612C211.737 161.432 211.631 162.128 211.781 162.701C211.931 163.274 212.284 163.683 212.84 163.928C213.44 164.193 213.966 164.171 214.417 163.862C214.861 163.569 215.364 163.161 215.926 162.639L217.653 161.04C218.065 160.662 218.532 160.317 219.054 160.005C219.57 159.708 220.141 159.522 220.768 159.449C221.388 159.39 222.05 159.515 222.752 159.825C223.514 160.161 224.104 160.666 224.524 161.34C224.952 162.036 225.183 162.82 225.218 163.692C225.262 164.585 225.077 165.5 224.664 166.437C224.296 167.272 223.773 168.003 223.095 168.631C222.43 169.265 221.698 169.737 220.896 170.049L219.842 168.037C220.423 167.751 220.936 167.4 221.381 166.984C221.82 166.583 222.175 166.075 222.446 165.46C222.743 164.786 222.831 164.17 222.711 163.61C222.599 163.071 222.279 162.685 221.752 162.453C221.386 162.291 221.033 162.258 220.694 162.354C220.363 162.47 220.032 162.665 219.702 162.939C219.386 163.22 219.06 163.522 218.725 163.846L217.051 165.443C216.311 166.131 215.521 166.613 214.682 166.891C213.858 167.174 212.926 167.087 211.886 166.629C211.11 166.287 210.49 165.769 210.027 165.075C209.563 164.381 209.305 163.559 209.251 162.609C209.206 161.68 209.422 160.674 209.9 159.59Z" fill="#F7F5F5"/>
<path d="M203.6 172.48L208.474 175.683L219.301 177.168L217.667 179.655L213.381 178.879C212.764 178.741 212.159 178.612 211.568 178.491C210.991 178.38 210.377 178.264 209.729 178.144L209.676 178.224C210.043 178.772 210.389 179.296 210.712 179.795C211.048 180.303 211.402 180.813 211.773 181.326L214.187 184.951L212.593 187.378L206.945 178.01L202.071 174.807L203.6 172.48Z" fill="#F7F5F5"/>
<path d="M186.181 192.942C187.2 192.042 188.317 191.493 189.53 191.296C190.755 191.111 191.991 191.279 193.24 191.798C194.487 192.34 195.672 193.246 196.795 194.517C197.918 195.788 198.661 197.064 199.024 198.345C199.375 199.636 199.373 200.866 199.017 202.034C198.661 203.202 197.974 204.237 196.955 205.137C195.923 206.048 194.806 206.608 193.603 206.817C192.4 207.026 191.185 206.871 189.959 206.354C188.721 205.846 187.54 204.957 186.417 203.686C185.295 202.415 184.547 201.122 184.175 199.807C183.802 198.514 183.782 197.272 184.117 196.079C184.462 194.899 185.15 193.854 186.181 192.942ZM187.786 194.759C186.863 195.575 186.469 196.616 186.606 197.883C186.754 199.161 187.411 200.46 188.576 201.779C189.741 203.098 190.928 203.886 192.136 204.142C193.355 204.41 194.426 204.136 195.35 203.32C196.273 202.505 196.677 201.475 196.561 200.233C196.456 199.002 195.82 197.727 194.655 196.408C193.49 195.089 192.282 194.278 191.031 193.974C189.791 193.682 188.709 193.943 187.786 194.759Z" fill="#F7F5F5"/>
<path d="M176.062 201.574L183.946 215.147L181.476 216.581L172.806 211.403L169.74 209.326L169.657 209.375C170.114 210.034 170.622 210.748 171.179 211.516C171.722 212.292 172.215 213.061 172.657 213.822L176.08 219.716L173.777 221.054L165.893 207.481L168.363 206.047L177.032 211.225L180.098 213.302L180.181 213.253C179.708 212.566 179.208 211.848 178.681 211.1C178.139 210.359 177.648 209.609 177.206 208.848L173.758 202.912L176.062 201.574Z" fill="#F7F5F5"/>
<path d="M152.281 213.391L155.924 228.658L152.866 229.388L148.375 222.564C148.089 222.123 147.807 221.664 147.529 221.187C147.239 220.73 146.956 220.271 146.682 219.81L146.588 219.832C146.536 220.371 146.492 220.908 146.455 221.443C146.422 221.994 146.385 222.529 146.344 223.049L145.489 231.149L142.408 231.884L138.764 216.616L141.262 216.02L142.928 223C143.043 223.483 143.152 224.008 143.254 224.576C143.345 225.163 143.436 225.75 143.527 226.337C143.602 226.927 143.672 227.462 143.736 227.94L143.83 227.917L144.22 224.074L145.08 216.614L146.691 216.23L150.85 222.492L152.911 225.75L153.004 225.728C152.846 225.272 152.675 224.762 152.491 224.198C152.291 223.637 152.107 223.072 151.939 222.503C151.758 221.954 151.61 221.439 151.495 220.956L149.83 213.976L152.281 213.391Z" fill="#F7F5F5"/>
<path d="M132.352 217.471L133.079 233.15L123.633 233.588L123.524 231.239L130.189 230.93L130.003 226.926L124.369 227.187L124.26 224.838L129.894 224.577L129.68 219.949L122.775 220.269L122.666 217.92L132.352 217.471Z" fill="#F7F5F5"/>
<path d="M108.739 222.022L108.392 224.008L102.765 223.024L103.113 221.038L108.739 222.022Z" fill="#F7F5F5"/>
<path d="M85.0741 209.938C86.2825 210.449 87.2588 211.201 88.003 212.193C88.7473 213.186 89.1804 214.359 89.3024 215.714C89.4034 217.077 89.1173 218.554 88.4441 220.145C87.7772 221.722 86.9122 222.946 85.8491 223.816C84.765 224.696 83.5972 225.218 82.3459 225.384C81.0883 225.564 79.8553 225.399 78.6469 224.887C77.7333 224.501 77.0007 223.974 76.4492 223.306C75.8977 222.639 75.4964 221.965 75.2452 221.286L77.3169 220.208C77.5232 220.747 77.8081 221.223 78.1714 221.637C78.5138 222.06 78.9649 222.39 79.5249 222.627C80.3059 222.957 81.0962 223.04 81.8959 222.874C82.6746 222.717 83.406 222.323 84.09 221.691C84.7592 221.054 85.3245 220.19 85.7857 219.099C86.4838 217.449 86.6712 215.999 86.3481 214.751C86.0187 213.517 85.2498 212.644 84.0414 212.133C83.3931 211.859 82.7623 211.749 82.149 211.802C81.5296 211.87 80.9201 212.038 80.3205 212.305L79.6325 210.112C80.5087 209.684 81.4078 209.447 82.3299 209.403C83.231 209.367 84.1458 209.546 85.0741 209.938Z" fill="#F7F5F5"/>
<path d="M70.8526 202.382C71.9837 203.137 72.7996 204.076 73.3003 205.199C73.7922 206.336 73.9467 207.574 73.7638 208.914C73.5588 210.258 72.9855 211.636 72.0438 213.047C71.1021 214.457 70.0586 215.501 68.9132 216.18C67.7546 216.849 66.5651 217.161 65.3448 217.116C64.1244 217.071 62.9487 216.671 61.8177 215.915C60.6733 215.151 59.8463 214.214 59.3367 213.105C58.8271 211.995 58.6659 210.781 58.8531 209.463C59.0271 208.137 59.5849 206.768 60.5266 205.357C61.4683 203.947 62.5273 202.894 63.7038 202.198C64.858 201.506 66.0542 201.17 67.2922 201.188C68.5214 201.22 69.7082 201.618 70.8526 202.382ZM69.5067 204.398C68.4821 203.714 67.375 203.6 66.1854 204.057C64.9869 204.526 63.8991 205.493 62.9218 206.957C61.9446 208.42 61.4866 209.769 61.548 211.003C61.6004 212.25 62.1389 213.215 63.1636 213.899C64.1882 214.583 65.2864 214.711 66.4582 214.281C67.6212 213.865 68.6912 212.925 69.6685 211.461C70.6457 209.997 71.1214 208.622 71.0957 207.335C71.061 206.061 70.5313 205.082 69.5067 204.398Z" fill="#F7F5F5"/>
<path d="M59.852 194.893L48.6329 205.87L46.4342 203.623L49.9766 196.262C50.208 195.789 50.4565 195.311 50.722 194.828C50.9649 194.344 51.2134 193.866 51.4674 193.393L51.4003 193.325C50.9112 193.557 50.4278 193.795 49.9499 194.039C49.4606 194.293 48.9828 194.537 48.5163 194.77L41.1302 198.202L38.9147 195.938L50.1337 184.961L51.9297 186.796L46.8005 191.815C46.446 192.162 46.0516 192.525 45.6176 192.905C45.1608 193.285 44.7041 193.665 44.2474 194.044C43.7795 194.413 43.3572 194.747 42.9806 195.049L43.0477 195.117L46.5448 193.475L53.3842 190.376L54.5423 191.56L51.3116 198.347L49.5769 201.791L49.6441 201.859C49.9536 201.489 50.3031 201.08 50.6927 200.632C51.0711 200.172 51.4607 199.724 51.8614 199.287C52.2396 198.85 52.6059 198.458 52.9604 198.111L58.0896 193.092L59.852 194.893Z" fill="#F7F5F5"/>
<path d="M46.2654 179.938L33.5052 189.079L31.8841 186.815L44.6442 177.675L46.2654 179.938Z" fill="#F7F5F5"/>
<path d="M40.8922 172.453L26.957 179.676L25.6427 177.141L31.2308 168.729L33.4525 165.767L33.4084 165.681C32.7276 166.106 31.9902 166.579 31.1963 167.098C30.395 167.604 29.6037 168.059 28.8224 168.464L22.7711 171.601L21.5451 169.235L35.4803 162.012L36.7946 164.548L31.2065 172.959L28.9848 175.922L29.029 176.007C29.7382 175.567 30.4792 175.102 31.2521 174.611C32.0176 174.106 32.791 173.652 33.5723 173.247L39.6662 170.088L40.8922 172.453Z" fill="#F7F5F5"/>
<path d="M31.2588 149.535C31.6527 150.887 31.7069 152.188 31.4212 153.438C31.1355 154.688 30.5061 155.788 29.5331 156.738C28.5447 157.693 27.2211 158.412 25.5621 158.895C23.9185 159.374 22.4212 159.469 21.0702 159.179C19.7038 158.894 18.5568 158.304 17.629 157.408C16.6858 156.516 16.0195 155.402 15.63 154.065C15.3166 152.99 15.2522 152.026 15.4367 151.172C15.6013 150.307 15.86 149.565 16.2128 148.946L18.3573 149.871C18.1005 150.362 17.9186 150.882 17.8117 151.43C17.6848 151.967 17.7244 152.588 17.9303 153.295C18.3198 154.631 19.1269 155.571 20.3518 156.114C21.5568 156.646 23.0042 156.666 24.6939 156.173C26.4143 155.672 27.6519 154.886 28.4067 153.816C29.1461 152.751 29.2964 151.466 28.8577 149.96C28.7324 149.53 28.56 149.139 28.3405 148.786C28.1057 148.438 27.845 148.172 27.5583 147.989L24.3095 148.936L25.1421 151.793L22.9532 152.431L21.4221 147.178L28.0581 145.244C28.7127 145.603 29.3398 146.153 29.9393 146.895C30.519 147.626 30.9588 148.506 31.2588 149.535Z" fill="#F7F5F5"/>
<path d="M27.399 125.448C27.4153 126.504 27.2312 127.531 26.8465 128.529C26.4617 129.511 25.9071 130.384 25.1828 131.147L23.2618 129.545C23.7811 128.976 24.2031 128.33 24.528 127.605C24.8368 126.88 24.9857 126.158 24.9746 125.438C24.9608 124.542 24.7663 123.865 24.3912 123.406C24.016 122.948 23.5245 122.724 22.9166 122.733C22.2607 122.743 21.7923 122.982 21.5115 123.451C21.2304 123.903 20.9434 124.484 20.6503 125.192L19.7477 127.367C19.5317 127.882 19.2515 128.39 18.9072 128.892C18.5626 129.377 18.1209 129.784 17.5819 130.112C17.0426 130.425 16.3891 130.587 15.6212 130.599C14.7893 130.611 14.0419 130.399 13.379 129.961C12.7 129.508 12.1624 128.892 11.7663 128.114C11.354 127.32 11.14 126.411 11.1242 125.387C11.1101 124.476 11.2805 123.593 11.6353 122.739C11.9742 121.886 12.4429 121.151 13.0414 120.533L14.8391 121.922C14.4308 122.424 14.111 122.957 13.8797 123.521C13.6481 124.068 13.5375 124.678 13.5479 125.35C13.5592 126.086 13.7365 126.683 14.0796 127.142C14.4065 127.585 14.8579 127.802 15.4338 127.793C15.8338 127.787 16.168 127.67 16.4365 127.442C16.6888 127.198 16.9079 126.882 17.094 126.495C17.264 126.109 17.4337 125.698 17.603 125.263L18.4579 123.114C18.8436 122.18 19.3598 121.412 20.0065 120.81C20.6373 120.208 21.5206 119.898 22.6565 119.881C23.5044 119.868 24.2838 120.08 24.9946 120.517C25.7054 120.954 26.2834 121.593 26.7284 122.434C27.1572 123.26 27.3808 124.264 27.399 125.448Z" fill="#F7F5F5"/>
<path d="M28.543 107.464C28.3087 108.804 27.7788 109.929 26.9534 110.84C26.1123 111.749 25.0418 112.39 23.742 112.764C22.4291 113.119 20.9374 113.15 19.2668 112.858C17.5962 112.566 16.2194 112.033 15.1366 111.259C14.0566 110.469 13.291 109.506 12.8397 108.372C12.3885 107.237 12.2801 106 12.5144 104.66C12.7515 103.305 13.2749 102.17 14.0845 101.256C14.8941 100.342 15.9396 99.7041 17.2209 99.3435C18.5049 98.9671 19.9823 98.9251 21.6529 99.2173C23.3236 99.5095 24.7147 100.053 25.8262 100.849C26.9248 101.626 27.7154 102.584 28.1982 103.725C28.6652 104.862 28.7801 106.108 28.543 107.464ZM26.1553 107.046C26.3676 105.833 26.0249 104.774 25.1273 103.87C24.2139 102.963 22.8903 102.357 21.1567 102.054C19.423 101.751 18.0042 101.876 16.9002 102.43C15.7804 102.982 15.1144 103.864 14.9021 105.078C14.6899 106.291 15.0168 107.347 15.8829 108.246C16.7332 109.142 18.0252 109.742 19.7589 110.045C21.4926 110.348 22.9429 110.228 24.11 109.685C25.2612 109.139 25.943 108.26 26.1553 107.046Z" fill="#F7F5F5"/>
<path d="M33.487 88.874C32.9854 90.1381 32.238 91.1326 31.2447 91.8574C30.2365 92.5762 29.0581 92.9866 27.7095 93.0884C26.3519 93.1694 24.8849 92.8972 23.3084 92.2717C21.732 91.6463 20.4923 90.8446 19.5893 89.8666C18.6922 88.8738 18.138 87.776 17.9266 86.5733C17.7153 85.3706 17.8604 84.1372 18.3619 82.873C18.8694 81.594 19.6123 80.5892 20.5908 79.8585C21.5692 79.1278 22.7223 78.7161 24.0502 78.6232C25.3839 78.5155 26.839 78.7744 28.4155 79.3999C29.9919 80.0253 31.2436 80.8404 32.1704 81.845C33.0883 82.8289 33.6677 83.928 33.9088 85.1426C34.135 86.3512 33.9944 87.595 33.487 88.874ZM31.2338 87.9801C31.6882 86.8349 31.5677 85.7285 30.8725 84.6608C30.1623 83.5873 28.9893 82.7259 27.3533 82.0769C25.7174 81.4278 24.3027 81.2624 23.1092 81.5807C21.9008 81.893 21.0694 82.6218 20.6151 83.767C20.1607 84.9121 20.2663 86.0126 20.9318 87.0685C21.5825 88.1185 22.7258 88.968 24.3617 89.6171C25.9976 90.2661 27.4421 90.4433 28.6951 90.1487C29.9332 89.8481 30.7795 89.1252 31.2338 87.9801Z" fill="#F7F5F5"/>
<path d="M38.6501 76.4379L25.5009 67.8668L27.0605 65.4742L37.133 66.1955L40.8058 66.6701L40.8582 66.5897C40.1531 66.2064 39.3789 65.7973 38.5356 65.3622C37.7011 64.9138 36.9152 64.4493 36.178 63.9687L30.468 60.2467L31.9227 58.015L45.0719 66.5861L43.5123 68.9787L33.4398 68.2573L29.7671 67.7827L29.7146 67.8632C30.4466 68.2639 31.2164 68.6797 32.0241 69.1107C32.8406 69.5283 33.6174 69.9774 34.3546 70.4579L40.1048 74.2061L38.6501 76.4379Z" fill="#F7F5F5"/>
<path d="M50.308 52.596L48.9192 51.1346L53.0596 47.1997L54.4484 48.661L50.308 52.596Z" fill="#F7F5F5"/>
<path d="M67.6765 44.1996L66.8485 42.8212C67.3606 40.9083 67.7796 39.2288 68.1053 37.7826C68.4366 36.3143 68.6157 35.0589 68.6425 34.0162C68.6612 32.9597 68.4728 32.1023 68.0773 31.444C67.6654 30.7582 67.1506 30.3208 66.5331 30.1318C65.9156 29.9428 65.2571 30.0584 64.5577 30.4786C64.0502 30.7834 63.6704 31.2076 63.4182 31.751C63.1798 32.2862 63.0017 32.8598 62.884 33.4718L60.7764 32.946C60.9926 31.9389 61.3201 31.0702 61.7587 30.3401C62.1891 29.5962 62.8501 28.9566 63.7416 28.421C65.0034 27.663 66.223 27.425 67.4003 27.707C68.5914 27.9808 69.5535 28.728 70.2868 29.9487C70.7482 30.7168 71.0025 31.6373 71.0497 32.7101C71.1024 33.7611 71.0166 34.9232 70.7922 36.1965C70.5816 37.4616 70.3203 38.8131 70.0082 40.2511C70.3346 40.0177 70.6884 39.7678 71.0697 39.5015C71.4428 39.2214 71.787 38.9866 72.1025 38.7971L75.3119 36.8691L76.5231 38.8853L67.6765 44.1996Z" fill="#F7F5F5"/>
<path d="M81.4262 36.2477L80.5863 34.1539L83.7494 32.8852L80.0148 23.5742L77.4086 24.6196L76.7653 23.0158C77.4097 22.6022 77.956 22.202 78.4043 21.8154C78.8466 21.4138 79.2369 20.9901 79.5752 20.5441L81.4908 19.7757L86.3333 31.8488L89.1177 30.732L89.9575 32.8258L81.4262 36.2477Z" fill="#F7F5F5"/>
<path d="M105.067 34.8685L101.113 11.1965L102.936 10.892L106.89 34.564L105.067 34.8685Z" fill="#F7F5F5"/>
<path d="M121.35 27.0551L121.463 24.8019L124.866 24.9728L125.369 14.9534L122.565 14.8126L122.652 13.0868C123.41 12.9807 124.074 12.8458 124.642 12.6821C125.212 12.5025 125.744 12.2809 126.238 12.0173L128.299 12.1208L127.647 25.1124L130.643 25.2628L130.53 27.516L121.35 27.0551Z" fill="#F7F5F5"/>
<path d="M141.006 29.3318C139.458 28.9994 138.366 28.0615 137.732 26.5181C137.113 24.978 137.074 22.9486 137.615 20.43C138.155 17.9113 139.018 16.1001 140.204 14.9964C141.406 13.896 142.781 13.512 144.33 13.8443C145.879 14.1767 146.967 15.0894 147.596 16.5826C148.24 18.0791 148.292 20.0867 147.752 22.6053C147.211 25.124 146.335 26.957 145.124 28.1043C143.928 29.2549 142.555 29.6641 141.006 29.3318ZM141.46 27.2198C141.945 27.3239 142.413 27.2363 142.866 26.9571C143.322 26.6622 143.741 26.122 144.122 25.3365C144.519 24.5544 144.869 23.4594 145.171 22.0514C145.473 20.6435 145.602 19.5093 145.557 18.6488C145.528 17.7917 145.362 17.1585 145.057 16.7495C144.755 16.3247 144.362 16.0603 143.877 15.9563C143.407 15.8555 142.948 15.937 142.499 16.2006C142.053 16.4485 141.633 16.9558 141.24 17.7222C140.846 18.4887 140.498 19.5759 140.196 20.9839C139.894 22.3918 139.763 23.5339 139.804 24.41C139.845 25.2861 140.013 25.9522 140.308 26.4082C140.607 26.8486 140.99 27.1191 141.46 27.2198Z" fill="#F7F5F5"/>
<path d="M156.997 40.1484L166.92 18.2959L168.603 19.0599L158.68 40.9125L156.997 40.1484Z" fill="#F7F5F5"/>
<path d="M173.827 42.0155L174.788 40.7256C176.751 40.472 178.464 40.2209 179.926 39.9724C181.41 39.7206 182.639 39.4089 183.613 39.0373C184.598 38.6529 185.319 38.1527 185.778 37.5366C186.255 36.8948 186.464 36.2525 186.404 35.6095C186.344 34.9665 185.987 34.4014 185.332 33.9142C184.857 33.5607 184.321 33.3707 183.722 33.3441C183.137 33.327 182.538 33.3804 181.928 33.5042L181.613 31.355C182.626 31.1721 183.554 31.1447 184.396 31.2728C185.248 31.3881 186.091 31.7562 186.925 32.3772C188.106 33.256 188.79 34.2935 188.977 35.4897C189.176 36.6954 188.851 37.8693 188.001 39.0117C187.466 39.7304 186.711 40.3156 185.737 40.7672C184.785 41.2154 183.677 41.5779 182.414 41.8545C181.164 42.1407 179.815 42.4128 178.366 42.6709C178.706 42.8841 179.072 43.1163 179.463 43.3677C179.864 43.6062 180.212 43.8354 180.507 44.0551L183.51 46.2905L182.106 48.1773L173.827 42.0155Z" fill="#F7F5F5"/>
<path d="M189.532 55.3005C188.428 54.1643 188.041 52.7782 188.371 51.1423C188.711 49.5179 189.805 47.8083 191.653 46.0135C193.501 44.2186 195.224 43.1914 196.823 42.9318C198.434 42.6836 199.791 43.1276 200.894 44.2639C201.998 45.4001 202.397 46.7637 202.091 48.3546C201.796 49.957 200.725 51.6557 198.877 53.4505C197.029 55.2454 195.283 56.2836 193.638 56.5652C192.004 56.8583 190.636 56.4367 189.532 55.3005ZM191.082 53.7955C191.427 54.1513 191.866 54.3387 192.397 54.3577C192.94 54.3656 193.588 54.1487 194.342 53.7071C195.106 53.2769 196.005 52.5602 197.037 51.5568C198.07 50.5535 198.807 49.6816 199.248 48.9413C199.7 48.2124 199.912 47.5931 199.886 47.0836C199.871 46.5629 199.691 46.1246 199.345 45.7688C199.01 45.4245 198.583 45.2373 198.063 45.2071C197.555 45.1658 196.924 45.3546 196.171 45.7736C195.418 46.1927 194.525 46.9038 193.492 47.9072C192.459 48.9105 191.717 49.7879 191.265 50.5394C190.812 51.291 190.582 51.9382 190.575 52.4812C190.578 53.0131 190.747 53.4512 191.082 53.7955Z" fill="#F7F5F5"/>
<path d="M196.711 62.5198L198.028 61.5978C199.972 61.9755 201.676 62.2765 203.142 62.5008C204.63 62.7291 205.894 62.8203 206.937 62.7745C207.992 62.7196 208.834 62.472 209.463 62.0316C210.119 61.5729 210.519 61.029 210.665 60.3998C210.81 59.7707 210.649 59.1218 210.181 58.4533C209.842 57.9683 209.392 57.6189 208.832 57.4052C208.282 57.2046 207.697 57.0669 207.079 56.9921L207.456 54.853C208.476 54.9986 209.366 55.2647 210.124 55.6515C210.896 56.0291 211.581 56.6439 212.177 57.496C213.021 58.702 213.343 59.902 213.144 61.0961C212.954 62.3033 212.275 63.3152 211.109 64.1316C210.375 64.6454 209.474 64.9631 208.407 65.0849C207.362 65.2107 206.197 65.2059 204.911 65.0708C203.634 64.9488 202.268 64.7821 200.812 64.571C201.067 64.8803 201.341 65.2159 201.634 65.5777C201.939 65.9303 202.197 66.2574 202.408 66.5589L204.555 69.6263L202.628 70.9749L196.711 62.5198Z" fill="#F7F5F5"/>
<path d="M205.214 74.9013L206.66 74.1986C208.52 74.8781 210.156 75.4441 211.568 75.8967C213.001 76.3567 214.235 76.6462 215.272 76.7653C216.322 76.8775 217.193 76.7657 217.884 76.4301C218.603 76.0805 219.085 75.6065 219.328 75.0082C219.571 74.4099 219.514 73.7437 219.157 73.0098C218.898 72.4773 218.51 72.0614 217.991 71.7621C217.479 71.4772 216.923 71.249 216.324 71.0776L217.034 69.0248C218.018 69.3294 218.854 69.7325 219.543 70.2341C220.246 70.7287 220.824 71.4437 221.279 72.3791C221.922 73.7031 222.051 74.939 221.666 76.0867C221.288 77.2488 220.458 78.141 219.177 78.7633C218.372 79.1549 217.432 79.3267 216.359 79.2787C215.308 79.2381 214.158 79.0497 212.91 78.7135C211.668 78.3917 210.345 78.0116 208.94 77.5735C209.144 77.9193 209.361 78.2939 209.593 78.6972C209.839 79.0936 210.042 79.4573 210.203 79.7883L211.839 83.1558L209.724 84.1837L205.214 74.9013Z" fill="#F7F5F5"/>
<path d="M219.147 95.603L221.109 95.1425L222.414 100.704L220.451 101.164L219.147 95.603Z" fill="#F7F5F5"/>
</svg>
