<svg width="23" height="23" viewBox="0 0 23 23" fill="none" xmlns="http://www.w3.org/2000/svg">
<path d="M2.63348 4.50978C1.50155 5.22856 0.75 6.49526 0.75 7.9375V16.0625C0.75 19.6869 3.68813 22.625 7.3125 22.625H15.4375C16.8798 22.625 18.1465 21.8735 18.8674 20.7406L18.7146 20.7477L18.5625 20.75H7.3125C4.72366 20.75 2.625 18.6514 2.625 16.0625V4.8125C2.625 4.7109 2.62785 4.60998 2.63348 4.50978ZM7.9375 0.75C5.69384 0.75 3.875 2.56884 3.875 4.8125V15.4375C3.875 17.6811 5.69384 19.5 7.9375 19.5H18.5625C20.8061 19.5 22.625 17.6811 22.625 15.4375V4.8125C22.625 2.56884 20.8061 0.75 18.5625 0.75H7.9375ZM13.7886 12.1716L13.9037 12.2671L19.2869 17.5023C19.0601 17.5818 18.8164 17.625 18.5625 17.625H7.9375C7.6836 17.625 7.43981 17.5818 7.21309 17.5023L12.5967 12.2671C12.9242 11.9488 13.4262 11.9169 13.7886 12.1716ZM7.9375 2.625H18.5625C19.7706 2.625 20.75 3.60438 20.75 4.8125V15.4375C20.75 15.6985 20.7043 15.9487 20.6205 16.1809L15.2109 10.9227C14.1737 9.9145 12.5535 9.86413 11.4581 10.7715L11.2897 10.9227L5.87999 16.1821C5.79586 15.9496 5.75 15.699 5.75 15.4375V4.8125C5.75 3.60438 6.72938 2.625 7.9375 2.625ZM10.1245 5.43895C9.26199 5.43895 8.56283 6.1381 8.56283 7.00056C8.56283 7.86301 9.26199 8.56217 10.1245 8.56217C10.9869 8.56217 11.686 7.86301 11.686 7.00056C11.686 6.1381 10.9869 5.43895 10.1245 5.43895Z" fill="black"/>
</svg>
