<svg width="253" height="253" viewBox="0 0 253 253" fill="none" xmlns="http://www.w3.org/2000/svg">
<path d="M225.19 130.273L241.142 128.984L240.812 131.821L232.787 132.266C231.946 132.298 231.097 132.328 230.24 132.357C229.397 132.404 228.555 132.435 227.716 132.451L227.705 132.546C228.511 132.817 229.318 133.08 230.126 133.334C230.948 133.607 231.762 133.879 232.568 134.15L240.214 136.971L239.934 139.378L231.846 140.372C231.015 140.453 230.168 140.531 229.305 140.608C228.459 140.687 227.604 140.765 226.741 140.842L226.73 140.937C227.558 141.162 228.377 141.387 229.189 141.61C230.001 141.833 230.813 142.048 231.627 142.255L239.336 144.528L239.029 147.174L223.784 142.383L224.183 138.95L232.608 137.972C233.226 137.915 233.845 137.858 234.464 137.801C235.081 137.76 235.689 137.726 236.288 137.699L236.299 137.603C235.724 137.424 235.142 137.235 234.552 137.038C233.961 136.856 233.371 136.667 232.782 136.47L224.8 133.634L225.19 130.273Z" fill="white"/>
<path d="M221.799 151.351L236.852 155.799L236.063 158.469L221.01 154.021L221.799 151.351Z" fill="white"/>
<path d="M218.725 161.644L232.919 168.346L231.699 170.929L221.623 171.585L217.919 171.615L217.878 171.701C218.629 171.985 219.452 172.285 220.346 172.601C221.234 172.932 222.076 173.285 222.872 173.661L229.035 176.571L227.898 178.98L213.704 172.279L214.924 169.696L225.001 169.04L228.704 169.01L228.745 168.923C227.965 168.626 227.146 168.319 226.287 168.001C225.421 167.699 224.591 167.36 223.795 166.984L217.588 164.053L218.725 161.644Z" fill="white"/>
<path d="M205.424 184.726C206.265 183.596 207.27 182.768 208.439 182.243C209.608 181.717 210.865 181.555 212.21 181.758C213.567 181.971 214.939 182.593 216.326 183.625C217.699 184.647 218.677 185.784 219.261 187.037C219.858 188.299 220.078 189.57 219.923 190.85C219.781 192.14 219.294 193.344 218.463 194.46C217.794 195.359 217.064 195.992 216.271 196.36C215.482 196.75 214.734 196.991 214.028 197.083L213.472 194.815C214.019 194.723 214.543 194.555 215.045 194.31C215.549 194.087 216.021 193.681 216.461 193.09C217.292 191.974 217.555 190.763 217.249 189.458C216.947 188.176 216.09 187.01 214.678 185.959C213.241 184.889 211.867 184.376 210.559 184.419C209.263 184.472 208.147 185.127 207.211 186.385C206.943 186.744 206.735 187.118 206.586 187.505C206.45 187.903 206.395 188.271 206.422 188.61L209.137 190.631L210.914 188.243L212.743 189.605L209.475 193.994L203.931 189.867C203.822 189.128 203.883 188.296 204.114 187.37C204.347 186.467 204.784 185.586 205.424 184.726Z" fill="white"/>
<path d="M194.202 197.465C194.975 196.746 195.861 196.195 196.86 195.812C197.847 195.44 198.867 195.268 199.919 195.295L200.015 197.795C199.245 197.789 198.482 197.909 197.726 198.153C196.981 198.409 196.345 198.782 195.817 199.272C195.161 199.883 194.789 200.48 194.699 201.066C194.61 201.651 194.773 202.167 195.187 202.612C195.633 203.092 196.125 203.28 196.661 203.175C197.185 203.081 197.808 202.905 198.531 202.649L200.75 201.863C201.277 201.679 201.843 201.546 202.446 201.466C203.037 201.397 203.635 201.453 204.24 201.633C204.833 201.825 205.391 202.202 205.914 202.764C206.48 203.373 206.823 204.071 206.941 204.856C207.059 205.664 206.962 206.476 206.649 207.291C206.336 208.129 205.804 208.896 205.054 209.594C204.386 210.215 203.616 210.679 202.745 210.987C201.884 211.307 201.024 211.451 200.165 211.42L199.992 209.155C200.639 209.122 201.249 209.002 201.822 208.797C202.384 208.602 202.911 208.276 203.403 207.818C203.942 207.317 204.267 206.786 204.378 206.224C204.489 205.684 204.347 205.204 203.955 204.782C203.683 204.489 203.372 204.319 203.023 204.272C202.673 204.248 202.292 204.297 201.88 204.418C201.479 204.55 201.06 204.699 200.624 204.864L198.455 205.669C197.503 206.008 196.587 206.138 195.707 206.061C194.837 205.996 194.016 205.547 193.242 204.715C192.665 204.094 192.3 203.373 192.149 202.552C191.998 201.732 192.086 200.875 192.412 199.981C192.738 199.11 193.335 198.271 194.202 197.465Z" fill="white"/>
<path d="M180.488 214.837L181.468 216.599L176.477 219.376L175.497 217.615L180.488 214.837Z" fill="white"/>
<path d="M151.771 221.371C153.039 221.032 154.271 221.027 155.467 221.353C156.664 221.679 157.726 222.34 158.654 223.334C159.571 224.348 160.252 225.69 160.697 227.359C161.139 229.013 161.207 230.51 160.902 231.85C160.586 233.21 159.985 234.339 159.099 235.238C158.217 236.152 157.142 236.779 155.875 237.117C154.916 237.373 154.014 237.407 153.169 237.218C152.324 237.03 151.594 236.745 150.978 236.362L151.952 234.239C152.446 234.538 152.963 234.74 153.504 234.844C154.034 234.967 154.593 234.951 155.18 234.794C155.999 234.575 156.674 234.155 157.203 233.533C157.722 232.931 158.057 232.171 158.209 231.253C158.346 230.338 158.262 229.309 157.957 228.165C157.494 226.434 156.753 225.175 155.731 224.388C154.714 223.616 153.571 223.399 152.303 223.738C151.623 223.919 151.057 224.219 150.606 224.638C150.159 225.072 149.781 225.578 149.472 226.158L147.582 224.849C148.011 223.973 148.575 223.234 149.276 222.633C149.965 222.052 150.797 221.631 151.771 221.371Z" fill="white"/>
<path d="M134.246 224.422C135.603 224.328 136.823 224.572 137.906 225.154C138.99 225.752 139.869 226.637 140.544 227.809C141.204 228.999 141.593 230.439 141.711 232.131C141.829 233.823 141.642 235.287 141.15 236.524C140.643 237.763 139.893 238.737 138.9 239.448C137.907 240.158 136.732 240.561 135.375 240.655C134.002 240.751 132.775 240.515 131.693 239.949C130.611 239.383 129.741 238.521 129.084 237.364C128.41 236.208 128.014 234.784 127.896 233.092C127.779 231.4 127.972 229.919 128.477 228.649C128.968 227.396 129.708 226.398 130.699 225.655C131.691 224.929 132.873 224.518 134.246 224.422ZM134.414 226.84C133.185 226.926 132.24 227.513 131.578 228.602C130.917 229.706 130.647 231.136 130.769 232.892C130.892 234.648 131.354 235.995 132.157 236.933C132.961 237.888 133.978 238.322 135.207 238.237C136.436 238.151 137.383 237.58 138.047 236.524C138.712 235.483 138.984 234.085 138.862 232.329C138.74 230.573 138.275 229.194 137.467 228.192C136.661 227.205 135.643 226.755 134.414 226.84Z" fill="white"/>
<path d="M119.802 225.188L117.513 240.716L114.402 240.258L112.768 232.254C112.666 231.738 112.575 231.207 112.493 230.661C112.394 230.129 112.302 229.598 112.219 229.068L112.124 229.054C111.875 229.535 111.634 230.017 111.401 230.5C111.166 230.999 110.933 231.482 110.702 231.95L106.899 239.152L103.765 238.69L106.054 223.162L108.595 223.536L107.548 230.636C107.476 231.126 107.382 231.654 107.266 232.219C107.132 232.798 106.999 233.377 106.865 233.955C106.715 234.532 106.582 235.054 106.464 235.522L106.559 235.536L108.349 232.112L111.919 225.506L113.557 225.748L115.093 233.106L115.795 236.897L115.89 236.911C115.913 236.429 115.943 235.892 115.982 235.299C116.005 234.704 116.044 234.112 116.099 233.521C116.135 232.944 116.19 232.411 116.262 231.92L117.309 224.821L119.802 225.188Z" fill="white"/>
<path d="M98.3003 221.118L93.4551 236.048L90.807 235.188L95.6522 220.259L98.3003 221.118Z" fill="white"/>
<path d="M87.9644 217.722L80.8445 231.711L78.2993 230.415L77.9422 220.323L78.0224 216.621L77.9369 216.577C77.631 217.319 77.3068 218.133 76.9641 219.018C76.6072 219.895 76.2292 220.726 75.83 221.51L72.7382 227.585L70.364 226.376L77.4839 212.388L80.0292 213.684L80.3862 223.775L80.306 227.478L80.3915 227.521C80.7119 226.751 81.0433 225.941 81.3857 225.092C81.7138 224.236 82.0775 223.416 82.4767 222.631L85.5903 216.514L87.9644 217.722Z" fill="white"/>
<path d="M65.4088 203.866C66.5165 204.735 67.3182 205.761 67.8141 206.943C68.3099 208.125 68.4392 209.386 68.2018 210.725C67.9546 212.077 67.2976 213.432 66.2308 214.792C65.1739 216.139 64.0121 217.088 62.7453 217.639C61.4686 218.204 60.1922 218.392 58.916 218.204C57.63 218.028 56.4394 217.511 55.3443 216.652C54.4632 215.96 53.849 215.214 53.5017 214.412C53.1318 213.614 52.9099 212.86 52.8358 212.151L55.1176 211.653C55.1952 212.203 55.3501 212.731 55.5822 213.238C55.7919 213.749 56.1863 214.231 56.7653 214.685C57.8603 215.545 59.0638 215.838 60.3757 215.566C61.6651 215.297 62.853 214.47 63.9396 213.085C65.0459 211.675 65.5942 210.316 65.5844 209.007C65.5648 207.71 64.9382 206.577 63.7046 205.609C63.3522 205.333 62.9841 205.115 62.6003 204.956C62.2066 204.81 61.8399 204.746 61.5002 204.764L59.4111 207.426L61.7523 209.264L60.3447 211.057L56.0399 207.679L60.3071 202.242C61.0484 202.152 61.8788 202.234 62.7983 202.488C63.6953 202.745 64.5655 203.204 65.4088 203.866Z" fill="white"/>
<path d="M47.028 185.083C47.6492 185.937 48.0898 186.883 48.3499 187.92C48.6006 188.945 48.6495 189.978 48.4967 191.019L46.0034 190.814C46.101 190.051 46.0738 189.279 45.922 188.499C45.7572 187.729 45.4631 187.053 45.0395 186.47C44.5125 185.746 43.9637 185.304 43.3931 185.145C42.8226 184.987 42.2915 185.086 41.7998 185.444C41.2693 185.83 41.0241 186.295 41.0641 186.839C41.0948 187.371 41.1942 188.011 41.3625 188.759L41.8762 191.057C41.9962 191.602 42.0598 192.179 42.0669 192.788C42.0646 193.383 41.9377 193.97 41.686 194.549C41.4249 195.114 40.9838 195.623 40.3627 196.075C39.6899 196.564 38.9565 196.821 38.1625 196.845C37.3461 196.865 36.552 196.671 35.7803 196.263C34.9862 195.851 34.288 195.231 33.6857 194.403C33.1492 193.665 32.7803 192.846 32.5791 191.943C32.3649 191.05 32.3248 190.179 32.4588 189.33L34.728 189.43C34.6834 190.076 34.7287 190.696 34.864 191.29C34.99 191.871 35.2506 192.434 35.6459 192.977C36.0788 193.572 36.5677 193.959 37.1123 194.136C37.6346 194.31 38.1287 194.228 38.5945 193.889C38.918 193.654 39.1238 193.365 39.212 193.024C39.2778 192.68 39.2754 192.296 39.2048 191.872C39.1213 191.458 39.0236 191.025 38.9118 190.572L38.3734 188.322C38.151 187.336 38.1309 186.411 38.3131 185.546C38.4824 184.691 39.0264 183.929 39.9451 183.261C40.6308 182.762 41.3901 182.487 42.223 182.435C43.0558 182.383 43.8964 182.573 44.7445 183.005C45.5704 183.433 46.3315 184.126 47.028 185.083Z" fill="white"/>
<path d="M37.4315 169.36C38.0122 170.59 38.2279 171.815 38.0787 173.036C37.9151 174.263 37.4099 175.404 36.563 176.459C35.6949 177.505 34.494 178.391 32.9604 179.115C31.4267 179.839 29.9944 180.197 28.6633 180.188C27.3254 180.165 26.1451 179.82 25.1223 179.153C24.0996 178.486 23.2979 177.538 22.7172 176.308C22.1297 175.063 21.9033 173.834 22.038 172.621C22.1727 171.407 22.6596 170.284 23.4988 169.25C24.3312 168.203 25.5142 167.317 27.0478 166.593C28.5815 165.869 30.0317 165.511 31.3985 165.52C32.7441 165.522 33.9427 165.85 34.9944 166.503C36.0316 167.164 36.844 168.116 37.4315 169.36ZM35.2395 170.395C34.7135 169.281 33.8232 168.613 32.5685 168.392C31.2993 168.177 29.869 168.446 28.2775 169.197C26.686 169.948 25.5988 170.869 25.016 171.958C24.4188 173.054 24.3831 174.159 24.9091 175.273C25.4352 176.387 26.311 177.061 27.5368 177.297C28.7481 177.539 30.1495 177.284 31.741 176.532C33.3325 175.781 34.4486 174.847 35.0893 173.731C35.7155 172.621 35.7655 171.509 35.2395 170.395Z" fill="white"/>
<path d="M30.5005 150.462C30.8161 151.785 30.7756 153.028 30.3789 154.192C29.9667 155.36 29.2378 156.373 28.1925 157.231C27.1278 158.077 25.7706 158.697 24.1209 159.09C22.4713 159.484 20.996 159.54 19.695 159.258C18.3904 158.961 17.3061 158.381 16.4422 157.518C15.5783 156.655 14.9885 155.562 14.6728 154.239C14.3535 152.901 14.3843 151.651 14.7655 150.491C15.1466 149.331 15.8539 148.331 16.8875 147.493C17.9173 146.638 19.2571 146.014 20.9067 145.621C22.5564 145.227 24.0491 145.175 25.3849 145.465C26.7014 145.743 27.8071 146.31 28.7022 147.165C29.5817 148.025 30.1811 149.124 30.5005 150.462ZM28.1427 151.025C27.8567 149.826 27.1225 148.99 25.9401 148.515C24.7421 148.045 23.2871 148.014 21.5752 148.422C19.8633 148.831 18.6103 149.508 17.8162 150.454C17.0065 151.404 16.7447 152.478 17.0306 153.676C17.3166 154.875 18.0352 155.715 19.1865 156.197C20.3223 156.682 21.7461 156.721 23.458 156.312C25.17 155.904 26.4541 155.219 27.3104 154.258C28.1512 153.301 28.4286 152.223 28.1427 151.025Z" fill="white"/>
<path d="M27.4774 136.745L11.7889 137.23L11.7007 134.375L20.3773 129.209L23.6621 127.499L23.6591 127.403C22.8615 127.492 21.9924 127.598 21.0518 127.724C20.1107 127.833 19.2004 127.901 18.3208 127.928L11.5081 128.138L11.4258 125.476L27.1143 124.991L27.2025 127.846L18.5259 133.012L15.2411 134.722L15.2441 134.818C16.0737 134.729 16.9431 134.63 17.8521 134.522C18.7607 134.397 19.6548 134.322 20.5344 134.295L27.3951 134.083L27.4774 136.745Z" fill="white"/>
<path d="M23.7949 107.112L21.8304 106.659L23.1139 101.094L25.0783 101.546L23.7949 107.112Z" fill="white"/>
<path d="M38.1465 81.4692C37.5117 82.6719 36.6616 83.5801 35.596 84.1937C34.5162 84.7998 33.3005 85.0808 31.9488 85.0368C30.5904 84.9712 29.1612 84.5425 27.6613 83.7509C26.1614 82.9593 25.0152 82.0287 24.2228 80.9592C23.4378 79.8756 23.0051 78.7245 22.9245 77.506C22.8439 76.2875 23.121 75.0769 23.7558 73.8741C24.3981 72.6572 25.2449 71.7382 26.2963 71.1172C27.3478 70.4962 28.5385 70.211 29.8687 70.2617C31.2062 70.2982 32.625 70.7123 34.1249 71.5039C35.6248 72.2956 36.7814 73.2407 37.5947 74.3393C38.4012 75.4163 38.8589 76.5715 38.9678 77.8049C39.0626 79.0308 38.7888 80.2523 38.1465 81.4692ZM36.0028 80.3378C36.5778 79.2482 36.5772 78.1353 36.001 76.9989C35.4106 75.8551 34.3372 74.8725 32.7807 74.051C31.2241 73.2295 29.8355 72.9127 28.6146 73.1006C27.3796 73.281 26.4746 73.916 25.8996 75.0055C25.3245 76.0951 25.311 77.2006 25.8589 78.322C26.3927 79.4359 27.4378 80.4036 28.9943 81.2251C30.5508 82.0466 31.9678 82.3783 33.2453 82.2203C34.5086 82.0549 35.4277 81.4273 36.0028 80.3378Z" fill="white"/>
<path d="M48.702 64.9941C47.9407 65.9217 47.0904 66.5796 46.1509 66.9677C45.2114 67.3558 44.1762 67.4066 43.0453 67.1201C41.9245 66.8212 40.7024 66.1287 39.379 65.0426L32.5704 59.4548L34.3365 57.3027L41.3121 63.0276C42.1903 63.7482 42.9703 64.2228 43.6521 64.4512C44.3318 64.6571 44.9352 64.6659 45.4623 64.4776C45.9771 64.2791 46.4324 63.9387 46.8282 63.4563C47.2343 62.9616 47.4844 62.4424 47.5787 61.8988C47.6707 61.3327 47.5494 60.7365 47.2149 60.11C46.8782 59.4611 46.2707 58.7763 45.3926 58.0556L38.417 52.3308L40.107 50.2715L46.9157 55.8593C48.239 56.9454 49.1566 58.0089 49.6684 59.0499C50.1802 60.0908 50.3374 61.1099 50.14 62.107C49.9528 63.0918 49.4734 64.0541 48.702 64.9941Z" fill="white"/>
<path d="M60.2049 52.3181L51.6273 42.0962L48.1526 45.012L46.6407 43.2103L55.7228 35.5892L57.2347 37.3909L53.76 40.3066L62.3375 50.5286L60.2049 52.3181Z" fill="white"/>
<path d="M79.1023 38.7415L72.7728 24.3783L75.3863 23.2266L83.4281 29.3343L86.2449 31.7386L86.3327 31.6999C85.9515 30.9936 85.5267 30.2279 85.0582 29.4028C84.6043 28.5712 84.1999 27.7528 83.8451 26.9475L81.0965 20.7103L83.5343 19.636L89.8638 33.9992L87.2503 35.1509L79.2084 29.0432L76.3917 26.6389L76.3039 26.6776C76.698 27.4132 77.1155 28.1821 77.5565 28.9844C78.0121 29.7802 78.4173 30.5808 78.7722 31.3861L81.5401 37.6672L79.1023 38.7415Z" fill="white"/>
<path d="M104.229 29.9461C102.899 30.2264 101.657 30.1527 100.504 29.7251C99.3477 29.2819 98.3546 28.5263 97.5247 27.4584C96.7072 26.3716 96.1237 24.9983 95.7742 23.3387C95.4247 21.6791 95.4081 20.2029 95.7244 18.9099C96.0564 17.6137 96.6653 16.5453 97.5511 15.7047C98.4369 14.8641 99.5452 14.3037 100.876 14.0234C102.222 13.7398 103.47 13.804 104.62 14.216C105.77 14.6279 106.75 15.3616 107.561 16.4172C108.387 17.4694 108.975 18.8253 109.325 20.4849C109.674 22.1445 109.687 23.6381 109.361 24.9657C109.048 26.2743 108.452 27.3645 107.573 28.2364C106.69 29.0927 105.576 29.6626 104.229 29.9461ZM103.73 27.5742C104.935 27.3203 105.791 26.6086 106.297 25.4393C106.8 24.2543 106.869 22.8007 106.507 21.0784C106.144 19.3562 105.5 18.0856 104.576 17.2666C103.648 16.4319 102.581 16.1415 101.376 16.3954C100.17 16.6493 99.311 17.3452 98.7985 18.4833C98.2827 19.6057 98.2062 21.028 98.5689 22.7502C98.9316 24.4724 99.5818 25.7743 100.52 26.656C101.454 27.522 102.524 27.828 103.73 27.5742Z" fill="white"/>
<path d="M119.487 27.1514L116.549 11.4203L119.405 11.4534L120.681 19.3887C120.799 20.2221 120.918 21.0635 121.036 21.913C121.17 22.7466 121.289 23.58 121.391 24.4132L121.487 24.4144C121.673 23.5845 121.85 22.7545 122.02 21.9244C122.206 21.0785 122.391 20.2406 122.577 19.4106L124.589 11.5134L127.012 11.5415L128.841 19.4832C129.007 20.3012 129.173 21.1351 129.34 21.9851C129.506 22.8191 129.672 23.6611 129.838 24.5111L129.934 24.5122C130.072 23.6657 130.21 22.8273 130.348 21.9968C130.485 21.1663 130.615 20.3358 130.736 19.5051L132.196 11.6015L134.86 11.6324L131.678 27.2926L128.223 27.2525L126.374 18.9746C126.253 18.3651 126.132 17.7557 126.011 17.1463C125.906 16.537 125.809 15.9358 125.72 15.3428L125.624 15.3417C125.505 15.9323 125.379 16.5309 125.243 17.1374C125.124 17.744 124.997 18.3506 124.862 18.9571L122.871 27.1906L119.487 27.1514Z" fill="white"/>
<path d="M151.272 25.1656L151.843 23.2323L157.321 24.8512L156.75 26.7846L151.272 25.1656Z" fill="white"/>
<path d="M170.466 37.6697L177.946 23.8705L180.393 25.1972L172.913 38.9964L170.466 37.6697Z" fill="white"/>
<path d="M179.76 42.7815L189.132 30.1904L193.387 33.3573C194.259 34.0069 194.956 34.7051 195.478 35.452C196.012 36.2085 196.272 37.0108 196.259 37.8588C196.269 38.7036 195.925 39.5944 195.227 40.5314C194.511 41.494 193.702 42.0986 192.8 42.3451C191.912 42.6011 190.993 42.5757 190.045 42.2687L189.136 49.7601L186.633 47.8973L187.587 40.9481L185.662 39.5152L181.994 44.4438L179.76 42.7815ZM186.98 37.7439L188.771 39.0766C189.631 39.7166 190.419 40.0242 191.136 39.9991C191.875 39.9708 192.507 39.6037 193.033 38.8978C193.567 38.179 193.709 37.5065 193.457 36.8802C193.228 36.2507 192.683 35.6159 191.823 34.9758L190.032 33.6431L186.98 37.7439Z" fill="white"/>
<path d="M194.2 54.0256L205.811 43.4633L207.684 45.5227L203.015 49.7702L207.295 54.4747L211.964 50.2272L213.838 52.2866L202.227 62.8488L200.354 60.7895L205.502 56.1059L201.222 51.4014L196.074 56.0849L194.2 54.0256Z" fill="white"/>
<path d="M215.995 67.5534L214.071 68.0902L216.172 71.503L217.518 70.0262C218.092 69.3719 218.691 68.7119 219.314 68.0461C219.946 67.3939 220.571 66.7459 221.189 66.1021L221.139 66.0204C220.281 66.3047 219.414 66.5754 218.539 66.8325C217.685 67.0948 216.838 67.3351 215.995 67.5534ZM206.127 67.4575L222.173 63.5799L223.884 66.3591L213.2 78.9424L211.664 76.4493L214.64 73.1795L211.871 68.6837L207.612 69.8689L206.127 67.4575Z" fill="white"/>
<path d="M216.694 86.3028L222.099 84.1114L229.473 76.0458L230.591 78.8038L227.517 81.8889C227.052 82.3189 226.603 82.7429 226.168 83.1609C225.748 83.5729 225.304 84.0117 224.837 84.4774L224.873 84.5664C225.533 84.5752 226.16 84.5886 226.754 84.6066C227.363 84.6186 227.984 84.6172 228.617 84.6023L232.971 84.6755L234.063 87.3667L223.145 86.6915L217.74 88.8828L216.694 86.3028Z" fill="white"/>
<path d="M228.186 105.995L230.179 105.693L231.034 111.341L229.041 111.643L228.186 105.995Z" fill="white"/>
</svg>
