<svg width="253" height="253" viewBox="0 0 253 253" fill="none" xmlns="http://www.w3.org/2000/svg">
<path d="M225.09 128.485L240.744 129.635L240.051 139.065L237.705 138.893L238.194 132.239L234.197 131.946L233.784 137.57L231.438 137.398L231.851 131.773L227.232 131.434L226.725 138.328L224.38 138.155L225.09 128.485Z" fill="white"/>
<path d="M231.107 148.136L229.36 147.167L228.459 151.072L230.454 150.966C231.323 150.903 232.212 150.854 233.124 150.818C234.032 150.797 234.932 150.775 235.824 150.751L235.846 150.657C235.035 150.257 234.228 149.841 233.424 149.409C232.632 148.997 231.86 148.572 231.107 148.136ZM224.149 141.138L238.295 149.646L237.562 152.826L221.119 154.281L221.777 151.428L226.191 151.19L227.377 146.045L223.513 143.897L224.149 141.138Z" fill="white"/>
<path d="M217.702 162.709C218.102 161.732 218.676 160.861 219.422 160.094C220.162 159.343 221.015 158.759 221.981 158.342L223.117 160.571C222.416 160.889 221.774 161.318 221.19 161.856C220.621 162.401 220.2 163.007 219.926 163.673C219.587 164.502 219.499 165.201 219.664 165.77C219.828 166.339 220.192 166.739 220.754 166.969C221.361 167.218 221.886 167.182 222.329 166.862C222.765 166.557 223.257 166.136 223.806 165.6L225.491 163.956C225.892 163.567 226.35 163.21 226.864 162.885C227.371 162.574 227.937 162.374 228.562 162.284C229.181 162.209 229.845 162.317 230.556 162.608C231.326 162.924 231.929 163.413 232.367 164.077C232.812 164.761 233.064 165.538 233.122 166.409C233.189 167.301 233.028 168.221 232.64 169.169C232.294 170.012 231.79 170.757 231.128 171.402C230.481 172.053 229.761 172.545 228.968 172.877L227.861 170.893C228.434 170.592 228.938 170.228 229.372 169.801C229.801 169.388 230.142 168.871 230.397 168.249C230.676 167.568 230.748 166.949 230.613 166.393C230.487 165.857 230.158 165.48 229.625 165.261C229.254 165.11 228.901 165.086 228.564 165.19C228.237 165.315 227.911 165.519 227.588 165.801C227.279 166.09 226.962 166.401 226.635 166.734L225.003 168.373C224.281 169.08 223.505 169.583 222.673 169.882C221.856 170.187 220.922 170.125 219.871 169.694C219.087 169.372 218.454 168.871 217.972 168.189C217.49 167.508 217.211 166.693 217.132 165.744C217.063 164.817 217.253 163.805 217.702 162.709Z" fill="white"/>
<path d="M211.903 175.374L216.902 178.377L227.78 179.424L226.248 181.975L221.935 181.372C221.312 181.259 220.703 181.155 220.107 181.058C219.526 180.97 218.908 180.879 218.255 180.786L218.206 180.868C218.595 181.401 218.961 181.91 219.304 182.396C219.66 182.89 220.035 183.385 220.427 183.882L222.985 187.407L221.49 189.896L215.469 180.764L210.469 177.76L211.903 175.374Z" fill="white"/>
<path d="M196.851 194.823C197.806 193.854 198.882 193.23 200.079 192.95C201.288 192.681 202.533 192.762 203.815 193.194C205.096 193.649 206.341 194.471 207.549 195.662C208.757 196.852 209.586 198.074 210.037 199.326C210.476 200.59 210.558 201.817 210.284 203.007C210.01 204.197 209.395 205.277 208.441 206.245C207.475 207.225 206.399 207.861 205.213 208.152C204.027 208.444 202.805 208.374 201.546 207.942C200.276 207.521 199.036 206.715 197.828 205.525C196.621 204.334 195.786 203.096 195.324 201.809C194.862 200.545 194.757 199.307 195.008 198.095C195.271 196.894 195.885 195.803 196.851 194.823ZM198.578 196.525C197.713 197.402 197.393 198.468 197.617 199.722C197.852 200.988 198.597 202.238 199.85 203.473C201.104 204.709 202.342 205.413 203.565 205.585C204.8 205.768 205.849 205.421 206.714 204.544C207.579 203.666 207.911 202.612 207.709 201.38C207.52 200.159 206.798 198.931 205.544 197.696C204.291 196.46 203.03 195.734 201.761 195.517C200.504 195.311 199.443 195.647 198.578 196.525Z" fill="white"/>
<path d="M187.59 203.847L196.542 216.74L194.196 218.369L185.137 213.907L181.914 212.084L181.835 212.139C182.344 212.759 182.907 213.43 183.524 214.151C184.128 214.88 184.681 215.607 185.183 216.329L189.071 221.928L186.883 223.447L177.93 210.555L180.276 208.926L189.335 213.388L192.559 215.211L192.638 215.156C192.11 214.509 191.554 213.834 190.968 213.131C190.369 212.436 189.818 211.728 189.317 211.005L185.401 205.367L187.59 203.847Z" fill="white"/>
<path d="M165.773 217.059L170.954 231.875L167.987 232.913L162.824 226.582C162.494 226.172 162.166 225.745 161.841 225.299C161.506 224.874 161.178 224.446 160.858 224.015L160.767 224.047C160.77 224.589 160.781 225.127 160.799 225.663C160.822 226.215 160.84 226.751 160.853 227.272L160.828 235.417L157.837 236.462L152.656 221.646L155.08 220.798L157.449 227.572C157.613 228.04 157.775 228.552 157.934 229.106C158.085 229.681 158.235 230.255 158.385 230.83C158.52 231.41 158.644 231.934 158.757 232.403L158.848 232.371L158.844 228.508L158.939 221L160.502 220.453L165.278 226.258L167.66 229.29L167.751 229.258C167.547 228.821 167.325 228.331 167.084 227.788C166.828 227.25 166.588 226.707 166.362 226.159C166.127 225.631 165.927 225.133 165.763 224.665L163.394 217.891L165.773 217.059Z" fill="white"/>
<path d="M146.736 222.989L149.263 238.481L139.93 240.003L139.552 237.681L146.137 236.607L145.492 232.652L139.925 233.56L139.546 231.238L145.113 230.33L144.367 225.759L137.545 226.871L137.167 224.55L146.736 222.989Z" fill="white"/>
<path d="M118.08 224.43C119.434 224.551 120.601 224.984 121.578 225.729C122.555 226.491 123.284 227.503 123.766 228.767C124.231 230.045 124.388 231.529 124.238 233.218C124.087 234.908 123.672 236.324 122.992 237.469C122.296 238.611 121.402 239.456 120.309 240.001C119.217 240.546 117.993 240.759 116.638 240.638C115.268 240.516 114.093 240.091 113.114 239.361C112.134 238.631 111.411 237.643 110.944 236.397C110.46 235.149 110.294 233.681 110.444 231.992C110.594 230.302 111.019 228.87 111.718 227.695C112.399 226.535 113.287 225.667 114.383 225.089C115.477 224.528 116.709 224.308 118.08 224.43ZM117.865 226.845C116.638 226.736 115.612 227.166 114.787 228.137C113.96 229.124 113.469 230.494 113.313 232.247C113.157 234 113.401 235.403 114.047 236.456C114.69 237.525 115.626 238.115 116.853 238.224C118.08 238.333 119.105 237.918 119.927 236.979C120.748 236.056 121.237 234.718 121.393 232.965C121.549 231.212 121.307 229.777 120.667 228.66C120.026 227.559 119.092 226.954 117.865 226.845Z" fill="white"/>
<path d="M105.335 222.982L101.288 238.147L92.1282 235.702L92.7348 233.43L99.2043 235.157L100.349 230.867L94.8305 229.394L95.4371 227.121L100.956 228.594L102.646 222.264L105.335 222.982Z" fill="white"/>
<path d="M91.1231 218.807L84.8473 233.194L76.158 229.404L77.0985 227.248L83.2359 229.925L85.0112 225.856L79.7757 223.572L80.7161 221.416L85.9516 223.7L88.5714 217.694L91.1231 218.807Z" fill="white"/>
<path d="M77.8951 212.54L69.9616 226.083L67.5594 224.676L75.4929 211.132L77.8951 212.54Z" fill="white"/>
<path d="M65.6818 204.089C66.7256 204.884 67.4849 205.854 67.9598 207C68.4347 208.146 68.5632 209.39 68.3454 210.732C68.1052 212.078 67.4616 213.438 66.4148 214.813C65.3776 216.175 64.2361 217.146 62.9903 217.725C61.722 218.308 60.4612 218.525 59.2078 218.375C57.9448 218.237 56.7914 217.771 55.7475 216.977C54.9583 216.376 54.3793 215.683 54.0106 214.9C53.6419 214.116 53.4202 213.364 53.3455 212.644L55.6198 212.113C55.686 212.686 55.8437 213.219 56.093 213.71C56.3198 214.205 56.675 214.636 57.1588 215.004C57.8334 215.518 58.5786 215.794 59.3944 215.832C60.1877 215.873 60.994 215.672 61.8132 215.23C62.6197 214.779 63.3816 214.082 64.0989 213.14C65.1846 211.714 65.7257 210.356 65.7223 209.067C65.7092 207.79 65.1807 206.754 64.1369 205.959C63.5768 205.533 62.9931 205.269 62.3858 205.169C61.7688 205.081 61.1367 205.092 60.4895 205.203L60.367 202.908C61.3221 202.71 62.2518 202.704 63.156 202.889C64.0379 203.078 64.8798 203.478 65.6818 204.089Z" fill="white"/>
<path d="M58.3348 198.206L47.3577 209.425L45.3678 207.478L56.3449 196.259L58.3348 198.206Z" fill="white"/>
<path d="M43.7348 194.876L45.5777 194.105L43.069 190.979L41.9171 192.611C41.4285 193.332 40.9161 194.061 40.38 194.799C39.8339 195.524 39.2941 196.245 38.7605 196.96L38.8206 197.035C39.637 196.647 40.4636 196.271 41.3001 195.907C42.1141 195.541 42.9257 195.197 43.7348 194.876ZM53.5382 193.748L38.0974 199.585L36.0544 197.04L45.0959 183.228L46.9286 185.512L44.3817 189.125L47.6865 193.243L51.7656 191.539L53.5382 193.748Z" fill="white"/>
<path d="M42.6296 179.45L28.9994 187.234L27.6188 184.816L39.2066 178.199L35.9695 172.53L38.012 171.364L42.6296 179.45Z" fill="white"/>
<path d="M32.0708 156.972L18.4756 166.219L17.6176 163.394L24.5308 158.987C25.2984 158.486 26.0424 158.017 26.7627 157.581C27.483 157.145 28.2346 156.674 29.0175 156.169L28.9896 156.077C28.0532 156.077 27.1667 156.104 26.3301 156.157C25.4889 156.196 24.6124 156.228 23.7007 156.254L15.5108 156.459L14.6806 153.727L31.115 153.826L32.0708 156.972Z" fill="white"/>
<path d="M29.0868 145.593L13.636 148.357L13.1458 145.616L28.5966 142.853L29.0868 145.593Z" fill="white"/>
<path d="M27.6181 137.155L11.9418 137.942L11.7312 133.747C11.6109 131.351 12.1642 129.448 13.3912 128.041C14.6182 126.634 16.526 125.865 19.1148 125.735C21.7195 125.604 23.7263 126.168 25.1352 127.427C26.5281 128.687 27.2831 130.484 27.4003 132.817L27.6181 137.155ZM25.2253 134.488L25.164 133.265C25.0845 131.683 24.5677 130.484 23.6136 129.667C22.6434 128.85 21.1915 128.491 19.258 128.588C17.3404 128.684 15.9638 129.186 15.1282 130.093C14.2927 131 13.9146 132.244 13.994 133.826L14.0554 135.049L25.2253 134.488Z" fill="white"/>
<path d="M27.279 119.587L11.6878 117.776L12.7788 108.383L15.1151 108.654L14.3453 115.282L18.3266 115.744L18.9773 110.142L21.3136 110.413L20.6629 116.016L25.2639 116.55L26.0614 109.684L28.3977 109.955L27.279 119.587Z" fill="white"/>
<path d="M31.2495 99.0285C30.864 100.333 30.2093 101.391 29.2855 102.202C28.3463 103.009 27.2097 103.524 25.8758 103.747C24.531 103.95 23.0454 103.811 21.419 103.331C19.7925 102.85 18.4855 102.163 17.498 101.271C16.515 100.363 15.864 99.3197 15.545 98.1409C15.226 96.9622 15.2593 95.7207 15.6447 94.4165C16.0347 93.0969 16.684 92.0291 17.5925 91.2132C18.501 90.3972 19.6123 89.8831 20.9264 89.6708C22.245 89.4432 23.7175 89.5698 25.3439 90.0505C26.9704 90.5312 28.2905 91.23 29.3041 92.1469C30.307 93.0439 30.9833 94.0863 31.333 95.2742C31.6673 96.4574 31.6395 97.7089 31.2495 99.0285ZM28.9249 98.3414C29.2741 97.1599 29.0543 96.0689 28.2655 95.0683C27.4614 94.0632 26.2155 93.3112 24.5276 92.8124C22.8398 92.3135 21.4159 92.2765 20.256 92.7011C19.0807 93.1212 18.3185 93.922 17.9693 95.1035C17.6201 96.285 17.8246 97.3715 18.5826 98.363C19.3254 99.35 20.5406 100.093 22.2285 100.592C23.9163 101.091 25.3709 101.137 26.5922 100.73C27.7981 100.319 28.5757 99.5229 28.9249 98.3414Z" fill="white"/>
<path d="M33.4996 78.7368L31.738 77.7565L34.5154 72.7653L36.277 73.7455L33.4996 78.7368Z" fill="white"/>
<path d="M51.4194 61.7148C50.5189 62.734 49.4786 63.4162 48.2984 63.7612C47.1062 64.0957 45.8585 64.0822 44.5552 63.7207C43.2506 63.3367 41.9628 62.5832 40.6918 61.4603C39.4207 60.3374 38.5263 59.1628 38.0083 57.9366C37.501 56.6984 37.3518 55.4778 37.5608 54.2747C37.7697 53.0715 38.3244 51.9604 39.2249 50.9411C40.1359 49.9099 41.1756 49.2165 42.3438 48.8609C43.512 48.5052 44.7364 48.5088 46.0171 48.8717C47.3084 49.2225 48.5895 49.9594 49.8605 51.0824C51.1315 52.2053 52.0327 53.3964 52.564 54.6558C53.0939 55.8926 53.2664 57.1231 53.0814 58.3474C52.8844 59.5612 52.3304 60.6836 51.4194 61.7148ZM49.6028 60.1099C50.4185 59.1866 50.6803 58.1049 50.3882 56.8647C50.0842 55.614 49.2726 54.406 47.9537 53.2407C46.6347 52.0754 45.3598 51.4401 44.1291 51.3349C42.8864 51.2191 41.8572 51.6228 41.0415 52.5461C40.2258 53.4694 39.952 54.5405 40.2201 55.7594C40.4762 56.9678 41.2637 58.1546 42.5827 59.3199C43.9017 60.4852 45.2005 61.1417 46.4792 61.2893C47.7459 61.4263 48.7871 61.0332 49.6028 60.1099Z" fill="white"/>
<path d="M65.3071 48.4778C64.3577 49.2117 63.3818 49.6628 62.3793 49.831C61.3769 49.9992 60.3565 49.8173 59.3183 49.2852C58.2926 48.7433 57.2563 47.7951 56.2092 46.4406L50.8222 39.472L53.0248 37.7693L58.544 44.9088C59.2387 45.8076 59.8929 46.4445 60.5064 46.8196C61.1228 47.1722 61.709 47.3157 62.2649 47.25C62.811 47.1716 63.3309 46.9416 63.8246 46.56C64.3309 46.1686 64.6908 45.7185 64.9042 45.2097C65.1205 44.6785 65.1356 44.0702 64.9496 43.3848C64.7665 42.677 64.3275 41.8737 63.6327 40.975L58.1136 33.8355L60.2213 32.2062L65.6083 39.1748C66.6553 40.5293 67.3119 41.771 67.578 42.9001C67.8441 44.0291 67.7695 45.0575 67.3542 45.9852C66.9515 46.9032 66.2692 47.7341 65.3071 48.4778Z" fill="white"/>
<path d="M77.4121 39.9886L71.1401 28.2105L67.1364 30.3425L66.0309 28.2665L76.4957 22.6939L77.6012 24.7699L73.5974 26.9019L79.8694 38.6801L77.4121 39.9886Z" fill="white"/>
<path d="M95.7697 31.728L92.0105 16.4888L94.7833 15.8048L101.652 23.2071L104.012 26.0609L104.105 26.0379C103.852 25.2765 103.565 24.4491 103.246 23.5556C102.942 22.6582 102.685 21.7823 102.474 20.9279L100.842 14.3103L103.428 13.6723L107.187 28.9115L104.415 29.5955L97.5457 22.1931L95.1856 19.3393L95.0924 19.3623C95.3538 20.1547 95.6325 20.9841 95.9286 21.8504C96.2402 22.7129 96.5014 23.5713 96.7122 24.4257L98.3561 31.0899L95.7697 31.728Z" fill="white"/>
<path d="M119.576 27.7295C118.218 27.8029 117.002 27.5402 115.928 26.9413C114.853 26.3264 113.988 25.4278 113.331 24.2456C112.689 23.0465 112.322 21.6002 112.231 19.9066C112.139 18.2131 112.349 16.7517 112.859 15.5223C113.385 14.2921 114.151 13.3294 115.154 12.6342C116.158 11.9389 117.339 11.5546 118.697 11.4812C120.071 11.4069 121.295 11.6612 122.368 12.2441C123.441 12.827 124.297 13.7021 124.937 14.8692C125.593 16.0355 125.967 17.4654 126.059 19.1589C126.15 20.8524 125.934 22.3303 125.409 23.5925C124.9 24.8378 124.144 25.824 123.142 26.5512C122.138 27.2624 120.95 27.6552 119.576 27.7295ZM119.445 25.309C120.675 25.2425 121.63 24.6701 122.309 23.5919C122.986 22.4977 123.278 21.0719 123.183 19.3144C123.088 17.557 122.646 16.2029 121.858 15.2521C121.068 14.2853 120.058 13.8351 118.828 13.9017C117.598 13.9682 116.643 14.5246 115.962 15.5708C115.281 16.6011 114.988 17.995 115.083 19.7524C115.178 21.5099 115.621 22.8959 116.413 23.9107C117.204 24.9094 118.215 25.3755 119.445 25.309Z" fill="white"/>
<path d="M134.833 27.3681L134.219 11.3768L137.039 11.8257L137.145 19.8623C137.141 20.7041 137.135 21.5537 137.129 22.4113C137.14 23.2556 137.136 24.0974 137.115 24.9367L137.21 24.9517C137.515 24.1578 137.812 23.3625 138.1 22.566C138.407 21.7562 138.713 20.9543 139.018 20.1603L142.159 12.6406L144.553 13.0217L145.204 21.145C145.25 21.9786 145.293 22.8279 145.333 23.693C145.376 24.5423 145.418 25.3995 145.458 26.2647L145.553 26.2798C145.813 25.4624 146.071 24.653 146.329 23.8515C146.586 23.0499 146.835 22.2471 147.076 21.4431L149.672 13.8366L152.303 14.2554L146.873 29.2846L143.46 28.7414L142.838 20.2824C142.807 19.6618 142.777 19.0413 142.746 18.4207C142.731 17.8027 142.722 17.1938 142.721 16.5941L142.626 16.579C142.422 17.146 142.209 17.7197 141.987 18.3C141.781 18.8828 141.567 19.4644 141.345 20.0447L138.175 27.9L134.833 27.3681Z" fill="white"/>
<path d="M162.399 28.6444L163.171 26.7819L168.448 28.9676L167.676 30.8302L162.399 28.6444Z" fill="white"/>
<path d="M176.641 41.0846L184.97 27.7804L187.33 29.2576L179.001 42.5618L176.641 41.0846Z" fill="white"/>
<path d="M184.016 45.7281L193.974 33.595L198.074 36.9599C198.915 37.6501 199.578 38.3806 200.063 39.1514C200.561 39.9323 200.783 40.7459 200.73 41.5924C200.7 42.4367 200.314 43.3103 199.573 44.2131C198.812 45.1408 197.975 45.7063 197.063 45.9098C196.163 46.1235 195.247 46.0546 194.314 45.7031L193.051 53.143L190.64 51.1637L191.922 44.2675L190.066 42.7449L186.169 47.4943L184.016 45.7281ZM191.467 41.0382L193.192 42.4541C194.021 43.1342 194.794 43.4787 195.511 43.4877C196.251 43.4944 196.9 43.1577 197.458 42.4774C198.026 41.7848 198.2 41.1198 197.978 40.4822C197.778 39.8425 197.264 39.1826 196.435 38.5025L194.71 37.0865L191.467 41.0382Z" fill="white"/>
<path d="M196.814 56.6776L208.726 46.4575L210.539 48.5705L205.749 52.6804L209.89 57.5075L214.68 53.3975L216.493 55.5105L204.58 65.7306L202.768 63.6176L208.05 59.0858L203.909 54.2587L198.626 58.7906L196.814 56.6776Z" fill="white"/>
<path d="M217.066 69.2567L215.134 69.7651L217.185 73.2084L218.552 71.7516C219.136 71.1058 219.744 70.4547 220.377 69.7981C221.019 69.1553 221.653 68.5166 222.281 67.882L222.232 67.7995C221.369 68.0712 220.498 68.3291 219.62 68.5733C218.763 68.823 217.911 69.0508 217.066 69.2567ZM207.2 69.0157L223.301 65.3744L224.972 68.1786L214.103 80.6034L212.605 78.0879L215.628 74.8623L212.926 70.3262L208.65 71.4487L207.2 69.0157Z" fill="white"/>
<path d="M217.064 87.2299L222.469 85.0386L229.843 76.973L230.961 79.7309L227.887 82.816C227.422 83.246 226.973 83.67 226.538 84.088C226.118 84.5 225.674 84.9389 225.207 85.4046L225.243 85.4935C225.903 85.5023 226.53 85.5157 227.124 85.5337C227.733 85.5457 228.354 85.5443 228.987 85.5295L233.342 85.6026L234.433 88.2938L223.515 87.6186L218.11 89.8099L217.064 87.2299Z" fill="white"/>
<path d="M227.442 102.716L229.421 102.331L230.513 107.938L228.534 108.323L227.442 102.716Z" fill="white"/>
</svg>
