<svg width="253" height="253" viewBox="0 0 253 253" fill="none" xmlns="http://www.w3.org/2000/svg">
<path d="M224.502 132.966C224.6 131.914 224.894 130.913 225.384 129.963C225.872 129.028 226.518 128.22 227.32 127.539L229.057 129.339C228.479 129.848 227.99 130.445 227.589 131.131C227.204 131.819 226.978 132.521 226.911 133.238C226.829 134.13 226.949 134.824 227.273 135.32C227.596 135.816 228.061 136.092 228.666 136.148C229.319 136.209 229.811 136.022 230.14 135.586C230.468 135.167 230.816 134.621 231.184 133.948L232.316 131.883C232.586 131.394 232.919 130.919 233.316 130.458C233.711 130.012 234.194 129.655 234.765 129.387C235.335 129.135 236.002 129.044 236.767 129.115C237.595 129.192 238.315 129.484 238.927 129.99C239.553 130.514 240.021 131.185 240.331 132.001C240.656 132.834 240.77 133.761 240.676 134.78C240.592 135.688 240.327 136.548 239.882 137.358C239.453 138.17 238.908 138.85 238.247 139.4L236.609 137.826C237.069 137.37 237.444 136.875 237.735 136.339C238.024 135.82 238.2 135.225 238.262 134.556C238.33 133.824 238.218 133.211 237.927 132.717C237.649 132.242 237.224 131.977 236.651 131.924C236.252 131.887 235.907 131.968 235.616 132.166C235.339 132.381 235.087 132.671 234.86 133.035C234.649 133.402 234.437 133.792 234.221 134.205L233.14 136.25C232.656 137.137 232.06 137.845 231.352 138.374C230.66 138.904 229.748 139.117 228.617 139.012C227.773 138.934 227.021 138.639 226.361 138.128C225.702 137.617 225.196 136.919 224.844 136.035C224.507 135.168 224.393 134.145 224.502 132.966Z" fill="white"/>
<path d="M220.978 153.168C221.331 152.022 221.869 151.091 222.591 150.376C223.314 149.661 224.252 149.221 225.408 149.058C226.558 148.91 227.951 149.088 229.588 149.592L238.006 152.184L237.186 154.845L228.562 152.189C227.476 151.855 226.575 151.711 225.857 151.758C225.15 151.825 224.588 152.045 224.172 152.419C223.771 152.798 223.478 153.285 223.294 153.882C223.106 154.493 223.071 155.069 223.19 155.607C223.319 156.166 223.657 156.672 224.204 157.125C224.762 157.598 225.583 158.002 226.669 158.336L235.293 160.992L234.509 163.538L226.091 160.946C224.455 160.442 223.203 159.805 222.335 159.036C221.467 158.266 220.936 157.383 220.741 156.385C220.541 155.403 220.62 154.331 220.978 153.168Z" fill="white"/>
<path d="M216.199 167.639L229.914 175.271L227.335 179.906C226.806 180.857 226.206 181.64 225.534 182.255C224.855 182.884 224.094 183.248 223.251 183.346C222.415 183.467 221.487 183.243 220.466 182.676C219.418 182.092 218.712 181.37 218.349 180.508C217.978 179.661 217.882 178.747 218.061 177.767L210.516 177.853L212.033 175.126L219.047 175.157L220.214 173.06L214.845 170.072L216.199 167.639ZM222.143 174.133L221.058 176.084C220.537 177.02 220.336 177.842 220.455 178.549C220.58 179.278 221.028 179.857 221.796 180.285C222.579 180.72 223.265 180.772 223.852 180.44C224.446 180.13 225.004 179.506 225.525 178.569L226.61 176.619L222.143 174.133Z" fill="white"/>
<path d="M205.963 184.815L217.987 194.905L211.893 202.167L210.092 200.655L214.396 195.525L210.995 192.671L207.323 197.047L205.521 195.535L209.193 191.16L204.174 186.948L205.963 184.815Z" fill="white"/>
<path d="M196.833 206.83L196.042 204.995L192.944 207.538L194.589 208.672C195.314 209.153 196.049 209.657 196.793 210.185C197.524 210.723 198.251 211.255 198.972 211.781L199.046 211.72C198.649 210.908 198.263 210.085 197.891 209.253C197.516 208.443 197.163 207.635 196.833 206.83ZM195.598 197.039L201.604 212.415L199.081 214.486L185.171 205.596L187.435 203.738L191.076 206.246L195.157 202.896L193.409 198.836L195.598 197.039Z" fill="white"/>
<path d="M173.255 212.761C174.41 212.14 175.608 211.851 176.848 211.893C178.087 211.936 179.273 212.334 180.405 213.088C181.53 213.864 182.502 215.013 183.319 216.535C184.13 218.043 184.541 219.484 184.552 220.859C184.558 222.254 184.232 223.491 183.577 224.57C182.929 225.663 182.027 226.52 180.871 227.141C179.997 227.61 179.128 227.851 178.262 227.862C177.396 227.873 176.62 227.763 175.933 227.533L176.392 225.243C176.941 225.42 177.491 225.497 178.041 225.474C178.585 225.472 179.125 225.327 179.661 225.04C180.408 224.638 180.967 224.074 181.34 223.347C181.706 222.642 181.857 221.825 181.794 220.897C181.717 219.975 181.398 218.993 180.838 217.95C179.989 216.372 178.978 215.317 177.802 214.786C176.635 214.269 175.473 214.321 174.317 214.942C173.697 215.275 173.216 215.697 172.873 216.209C172.537 216.734 172.286 217.314 172.118 217.949L169.979 217.11C170.194 216.158 170.573 215.31 171.117 214.564C171.654 213.839 172.367 213.238 173.255 212.761Z" fill="white"/>
<path d="M161.9 218.565L166.632 233.531L157.616 236.382L156.907 234.139L163.268 232.128L162.06 228.306L156.682 230.007L155.973 227.764L161.351 226.064L159.954 221.647L153.364 223.731L152.655 221.489L161.9 218.565Z" fill="white"/>
<path d="M134.296 229.872L134.358 231.887L128.649 232.063L128.587 230.048L134.296 229.872Z" fill="white"/>
<path d="M105.249 222.906L101.955 235.837L106.351 236.957L105.77 239.236L94.2809 236.309L94.8616 234.03L99.2572 235.15L102.551 222.219L105.249 222.906Z" fill="white"/>
<path d="M89.9255 218.54L83.0662 232.658L80.5621 231.441L83.3205 225.764L77.6 222.985L74.8416 228.662L72.3375 227.445L79.1968 213.328L81.7009 214.544L78.6593 220.804L84.3798 223.584L87.4214 217.324L89.9255 218.54Z" fill="white"/>
<path d="M71.2898 208.717L61.7809 221.205L54.2576 215.477L55.6825 213.605L60.9908 217.647L63.4189 214.459L58.9317 211.042L60.3566 209.171L64.8438 212.587L67.6499 208.902L62.1507 204.715L63.5756 202.843L71.2898 208.717Z" fill="white"/>
<path d="M49.3845 188.892L36.6244 198.032L31.1179 190.345L33.03 188.975L36.9153 194.399L40.1736 192.066L36.8893 187.48L38.8014 186.111L42.0857 190.696L45.8513 187.999L41.8263 182.379L43.7383 181.01L49.3845 188.892Z" fill="white"/>
<path d="M39.2404 174.051L24.9731 180.594L22.9122 176.1C22.4253 175.038 22.13 174.029 22.0261 173.074C21.9223 172.118 22.0803 171.253 22.5001 170.48C22.92 169.707 23.6825 169.066 24.7878 168.56C25.835 168.079 26.8104 167.923 27.714 168.089C28.6177 168.255 29.4235 168.669 30.1315 169.33C30.8395 169.991 31.4303 170.838 31.9038 171.871L32.8442 173.921L38.0799 171.52L39.2404 174.051ZM30.8153 174.852L29.965 172.998C29.0046 170.903 27.659 170.253 25.9283 171.047C25.0266 171.46 24.5352 172.02 24.4542 172.726C24.3519 173.424 24.5442 174.304 25.0311 175.366L25.8414 177.133L30.8153 174.852Z" fill="white"/>
<path d="M23.9213 145.952L21.9258 146.239L21.1145 140.585L23.1101 140.298L23.9213 145.952Z" fill="white"/>
<path d="M28.23 113.692C28.0265 115.037 27.5227 116.174 26.7185 117.105C25.8984 118.032 24.843 118.698 23.5521 119.101C22.2478 119.487 20.7571 119.552 19.0802 119.298C17.4033 119.045 16.0147 118.543 14.9144 117.794C13.8165 117.029 13.0289 116.085 12.5518 114.961C12.0746 113.837 11.9377 112.602 12.1412 111.258C12.3471 109.897 12.8442 108.751 13.6326 107.818C14.421 106.886 15.4516 106.224 16.7242 105.834C17.9993 105.429 19.4753 105.353 21.1522 105.606C22.8291 105.86 24.2323 106.372 25.3619 107.142C26.478 107.893 27.2905 108.833 27.7993 109.962C28.2923 111.088 28.4359 112.332 28.23 113.692ZM25.8333 113.33C26.0177 112.112 25.6507 111.061 24.7326 110.178C23.7986 109.292 22.4615 108.717 20.7213 108.454C18.9811 108.191 17.5655 108.349 16.4746 108.928C15.3678 109.505 14.7223 110.402 14.5379 111.62C14.3536 112.839 14.7047 113.887 15.5912 114.765C16.4619 115.642 17.7674 116.211 19.5076 116.475C21.2477 116.738 22.695 116.585 23.8492 116.015C24.9876 115.443 25.649 114.548 25.8333 113.33Z" fill="white"/>
<path d="M33.4867 92.1095C33.0484 93.2265 32.4421 94.1144 31.668 94.7731C30.8938 95.4319 29.9246 95.7992 28.7604 95.8752C27.6021 95.9362 26.226 95.6541 24.6324 95.0286L16.4331 91.811L17.4501 89.2194L25.8505 92.516C26.9079 92.931 27.7962 93.142 28.5153 93.1492C29.2253 93.1357 29.8021 92.9581 30.2455 92.6165C30.6741 92.269 31.0023 91.8048 31.2303 91.2239C31.4641 90.6282 31.542 90.0572 31.4642 89.511C31.3773 88.9441 31.0782 88.4142 30.5669 87.9214C30.0465 87.4078 29.2576 86.9435 28.2001 86.5285L19.7998 83.232L20.773 80.7521L28.9722 83.9697C30.5659 84.5951 31.7666 85.3241 32.5742 86.1567C33.3819 86.9893 33.8455 87.9103 33.965 88.9197C34.0904 89.9143 33.9309 90.9775 33.4867 92.1095Z" fill="white"/>
<path d="M41.0812 75.4236L29.9024 68.1368L27.4255 71.9368L25.4551 70.6525L31.9293 60.7202L33.8997 62.0046L31.4227 65.8046L42.6015 73.0913L41.0812 75.4236Z" fill="white"/>
<path d="M57.8351 54.1001L48.0107 41.859L50.2381 40.0713L59.5845 43.8948L62.9267 45.4901L63.0015 45.43C62.4509 44.8461 61.8427 44.2161 61.177 43.54C60.5237 42.8539 59.9217 42.1677 59.3709 41.4813L55.1046 36.1656L57.1822 34.4982L67.0066 46.7393L64.7793 48.5269L55.4328 44.7034L52.0907 43.1082L52.0158 43.1683C52.5865 43.7771 53.1885 44.4121 53.8217 45.0733C54.4674 45.7245 55.0657 46.3932 55.6165 47.0795L59.9128 52.4327L57.8351 54.1001Z" fill="white"/>
<path d="M80.4467 38.6656C79.2257 39.2645 78.0038 39.4984 76.7812 39.3674C75.5516 39.222 74.4033 38.7338 73.3363 37.9027C72.2766 37.0502 71.3734 35.8626 70.6266 34.3399C69.8797 32.8172 69.5007 31.3903 69.4894 30.0593C69.4925 28.7212 69.82 27.5359 70.472 26.5033C71.1239 25.4707 72.0604 24.655 73.2814 24.0562C74.5168 23.4502 75.7423 23.2056 76.9579 23.3223C78.1734 23.4389 79.304 23.9091 80.3496 24.7329C81.4095 25.5496 82.3129 26.7193 83.0597 28.242C83.8065 29.7647 84.1854 31.2095 84.1964 32.5763C84.2147 33.9217 83.905 35.1251 83.2671 36.1864C82.6223 37.2333 81.6821 38.0597 80.4467 38.6656ZM79.3793 36.4893C80.4854 35.9468 81.1399 35.0466 81.3428 33.7888C81.5386 32.5166 81.249 31.0904 80.474 29.5102C79.6989 27.93 78.7626 26.8567 77.665 26.2901C76.5603 25.7092 75.4549 25.69 74.3488 26.2325C73.2427 26.775 72.5812 27.6608 72.3642 28.8899C72.1402 30.1046 72.4158 31.5021 73.1908 33.0823C73.9658 34.6625 74.9162 35.7646 76.042 36.3886C77.1607 36.9982 78.2732 37.0318 79.3793 36.4893Z" fill="white"/>
<path d="M96.3636 31.3778L89.9638 16.7101L92.7539 16.1002L95.7816 23.5454C96.0843 24.3309 96.3888 25.1242 96.6949 25.9253C97.0132 26.7073 97.3159 27.4928 97.603 28.2817L97.6968 28.2612C97.6911 27.4108 97.6775 26.5621 97.6562 25.7151C97.647 24.8491 97.6396 23.9909 97.6339 23.1405L97.8184 14.9932L100.186 14.4756L103.753 21.8029C104.1 22.5625 104.449 23.3377 104.802 24.1286C105.152 24.9038 105.503 25.6868 105.856 26.4777L105.95 26.4572C105.894 25.6014 105.84 24.7535 105.787 23.9133C105.734 23.0732 105.674 22.2348 105.606 21.398L105.251 13.3686L107.853 12.7997L108.274 28.7743L104.898 29.5123L101.236 21.8618C100.981 21.2952 100.726 20.7286 100.471 20.1619C100.232 19.5919 100.002 19.0279 99.7821 18.4701L99.6883 18.4906C99.7053 19.0928 99.7162 19.7046 99.721 20.3259C99.7414 20.9438 99.754 21.5634 99.7588 22.1847L99.6695 30.6552L96.3636 31.3778Z" fill="white"/>
<path d="M130.933 22.1705L131.127 20.1639L136.812 20.7137L136.618 22.7203L130.933 22.1705Z" fill="white"/>
<path d="M155.683 31.6682L160.921 16.8716L163.545 17.8005L158.308 32.5971L155.683 31.6682Z" fill="white"/>
<path d="M166.72 35.6089L174.251 21.8374L178.905 24.3821C179.859 24.9041 180.647 25.4987 181.267 26.1659C181.9 26.8408 182.27 27.5991 182.375 28.4407C182.502 29.2759 182.285 30.206 181.725 31.2308C181.149 32.2836 180.432 32.9948 179.573 33.3642C178.729 33.7412 177.816 33.8437 176.834 33.6716L176.975 41.2165L174.238 39.7196L174.217 32.7053L172.111 31.5539L169.163 36.9446L166.72 35.6089ZM173.17 29.6166L175.129 30.6875C176.069 31.2018 176.893 31.3968 177.599 31.2724C178.327 31.1416 178.902 30.6902 179.324 29.9181C179.754 29.1319 179.801 28.4463 179.464 27.8611C179.149 27.2695 178.522 26.7166 177.581 26.2023L175.623 25.1314L173.17 29.6166Z" fill="white"/>
<path d="M184.283 45.7445L194.503 33.8318L196.616 35.6445L192.506 40.4351L197.333 44.5763L201.443 39.7857L203.556 41.5984L193.336 53.5112L191.223 51.6984L195.755 46.416L190.928 42.2748L186.396 47.5573L184.283 45.7445Z" fill="white"/>
<path d="M208.666 57.5788L206.809 58.3163L209.261 61.4873L210.442 59.8763C210.944 59.1649 211.469 58.4452 212.019 57.7171C212.578 57.0017 213.131 56.2911 213.677 55.5855L213.619 55.5095C212.795 55.8832 211.962 56.2442 211.119 56.5925C210.298 56.9437 209.481 57.2725 208.666 57.5788ZM198.844 58.5285L214.388 52.9732L216.384 55.5556L207.093 69.1998L205.302 66.8832L207.914 63.3168L204.685 59.1394L200.576 60.7691L198.844 58.5285Z" fill="white"/>
<path d="M212.27 77.4032L217.458 74.7385L224.083 66.0473L225.442 68.6945L222.656 72.0415C222.232 72.5112 221.822 72.9737 221.426 73.4288C221.044 73.8766 220.642 74.3533 220.218 74.8588L220.262 74.9442C220.919 74.8941 221.545 74.8515 222.139 74.8164C222.746 74.774 223.365 74.7172 223.994 74.646L228.337 74.3304L229.664 76.9136L218.73 77.2149L213.542 79.8796L212.27 77.4032Z" fill="white"/>
<path d="M226.958 100.433L228.934 100.033L230.068 105.631L228.092 106.031L226.958 100.433Z" fill="white"/>
</svg>
