<svg width="253" height="254" viewBox="0 0 253 254" fill="none" xmlns="http://www.w3.org/2000/svg">
<path d="M224.494 133.824C224.579 132.771 224.862 131.767 225.341 130.81C225.818 129.87 226.454 129.054 227.249 128.364L229.006 130.145C228.435 130.66 227.953 131.263 227.559 131.953C227.182 132.645 226.964 133.35 226.906 134.067C226.834 134.961 226.962 135.653 227.291 136.145C227.621 136.638 228.088 136.908 228.694 136.958C229.348 137.011 229.837 136.818 230.162 136.378C230.485 135.955 230.827 135.405 231.187 134.728L232.294 132.651C232.559 132.159 232.887 131.68 233.278 131.214C233.668 130.764 234.147 130.401 234.715 130.126C235.281 129.867 235.948 129.769 236.713 129.831C237.542 129.898 238.266 130.182 238.883 130.681C239.516 131.198 239.991 131.863 240.311 132.675C240.645 133.505 240.77 134.43 240.687 135.451C240.614 136.36 240.359 137.222 239.924 138.038C239.504 138.854 238.967 139.541 238.312 140.098L236.656 138.543C237.111 138.082 237.48 137.583 237.765 137.044C238.048 136.521 238.217 135.925 238.271 135.255C238.331 134.521 238.212 133.91 237.915 133.42C237.632 132.948 237.204 132.688 236.629 132.642C236.231 132.609 235.887 132.694 235.598 132.895C235.323 133.113 235.074 133.406 234.852 133.773C234.646 134.142 234.437 134.534 234.227 134.951L233.169 137.008C232.695 137.9 232.107 138.615 231.406 139.152C230.72 139.69 229.811 139.914 228.678 139.822C227.833 139.753 227.078 139.467 226.412 138.964C225.747 138.46 225.233 137.768 224.871 136.888C224.524 136.025 224.398 135.004 224.494 133.824Z" fill="white"/>
<path d="M221.591 151.865C221.909 150.708 222.418 149.761 223.119 149.025C223.819 148.288 224.744 147.821 225.894 147.623C227.04 147.44 228.438 147.575 230.088 148.029L238.581 150.366L237.842 153.05L229.142 150.657C228.046 150.355 227.141 150.239 226.425 150.307C225.72 150.396 225.165 150.633 224.76 151.02C224.371 151.41 224.093 151.906 223.928 152.508C223.758 153.125 223.741 153.701 223.876 154.236C224.022 154.791 224.375 155.286 224.935 155.722C225.507 156.178 226.34 156.557 227.436 156.858L236.137 159.252L235.43 161.82L226.937 159.484C225.287 159.03 224.016 158.432 223.125 157.689C222.234 156.946 221.676 156.079 221.451 155.088C221.222 154.112 221.268 153.038 221.591 151.865Z" fill="white"/>
<path d="M217.477 165.56L231.517 172.576L229.146 177.32C228.66 178.294 228.095 179.102 227.451 179.746C226.8 180.405 226.056 180.802 225.219 180.938C224.389 181.096 223.452 180.914 222.407 180.392C221.333 179.855 220.596 179.165 220.195 178.321C219.787 177.491 219.651 176.582 219.787 175.595L212.252 176.015L213.647 173.224L220.655 172.943L221.728 170.796L216.232 168.05L217.477 165.56ZM223.703 171.783L222.706 173.78C222.226 174.739 222.062 175.569 222.213 176.27C222.37 176.993 222.843 177.551 223.63 177.944C224.431 178.345 225.118 178.366 225.691 178.008C226.27 177.672 226.799 177.024 227.279 176.065L228.276 174.068L223.703 171.783Z" fill="white"/>
<path d="M208.94 181.447L221.565 190.772L215.932 198.398L214.04 197L218.019 191.614L214.447 188.976L211.054 193.571L209.162 192.174L212.556 187.579L207.285 183.686L208.94 181.447Z" fill="white"/>
<path d="M202.724 202.222L201.782 200.46L198.907 203.253L200.641 204.245C201.405 204.664 202.179 205.105 202.964 205.569C203.738 206.044 204.506 206.513 205.269 206.977L205.338 206.91C204.874 206.134 204.421 205.347 203.98 204.548C203.539 203.772 203.12 202.997 202.724 202.222ZM200.675 192.569L207.945 207.389L205.603 209.664L191 201.967L193.1 199.926L196.938 202.121L200.726 198.442L198.644 194.542L200.675 192.569Z" fill="white"/>
<path d="M181.408 208.784C182.493 208.048 183.655 207.637 184.892 207.552C186.13 207.466 187.35 207.741 188.554 208.375C189.753 209.031 190.837 210.074 191.807 211.504C192.768 212.921 193.325 214.312 193.478 215.677C193.626 217.065 193.43 218.329 192.889 219.47C192.357 220.623 191.548 221.568 190.462 222.305C189.641 222.862 188.8 223.19 187.94 223.29C187.08 223.39 186.297 223.361 185.59 223.202L185.811 220.878C186.375 220.997 186.93 221.017 187.476 220.937C188.017 220.88 188.539 220.68 189.042 220.339C189.744 219.863 190.242 219.245 190.538 218.483C190.829 217.744 190.896 216.916 190.738 215.999C190.566 215.09 190.148 214.146 189.484 213.166C188.478 211.683 187.363 210.738 186.139 210.331C184.925 209.937 183.775 210.108 182.689 210.844C182.106 211.239 181.671 211.709 181.382 212.253C181.102 212.81 180.912 213.412 180.811 214.061L178.596 213.446C178.712 212.478 179.003 211.595 179.467 210.797C179.926 210.021 180.573 209.35 181.408 208.784Z" fill="white"/>
<path d="M171.578 215.169L177.961 229.509L169.322 233.354L168.366 231.206L174.461 228.492L172.831 224.831L167.679 227.124L166.722 224.975L171.875 222.682L169.991 218.45L163.677 221.261L162.72 219.112L171.578 215.169Z" fill="white"/>
<path d="M148.667 228.703L149.022 230.687L143.4 231.693L143.045 229.708L148.667 228.703Z" fill="white"/>
<path d="M122.102 225.989L121.228 239.304L125.754 239.601L125.6 241.948L113.769 241.171L113.923 238.824L118.45 239.122L119.324 225.806L122.102 225.989Z" fill="white"/>
<path d="M108.298 224.71L104.366 239.906L101.671 239.208L103.252 233.098L97.0949 231.504L95.5134 237.615L92.8182 236.917L96.7508 221.722L99.446 222.419L97.7022 229.157L103.859 230.751L105.603 224.013L108.298 224.71Z" fill="white"/>
<path d="M89.1123 219.067L82.4108 233.261L73.86 229.223L74.8642 227.096L80.8975 229.945L82.6087 226.321L77.5087 223.913L78.5129 221.786L83.613 224.194L85.5906 220.005L79.3403 217.054L80.3445 214.927L89.1123 219.067Z" fill="white"/>
<path d="M66.1672 206.032L55.9471 217.945L48.7703 211.788L50.3017 210.003L55.3656 214.347L57.9753 211.305L53.6947 207.633L55.2262 205.848L59.5067 209.52L62.5228 206.005L57.2768 201.504L58.8082 199.719L66.1672 206.032Z" fill="white"/>
<path d="M53.6172 194.72L41.4841 204.677L38.3476 200.856C37.6066 199.953 37.0644 199.053 36.7208 198.155C36.3772 197.257 36.31 196.381 36.5193 195.526C36.7285 194.671 37.3031 193.858 38.2431 193.086C39.1336 192.356 40.0369 191.956 40.9532 191.887C41.8695 191.818 42.754 192.013 43.6069 192.472C44.4598 192.931 45.2466 193.6 45.9673 194.478L47.3985 196.222L51.851 192.568L53.6172 194.72ZM45.6731 197.638L44.379 196.061C42.9173 194.28 41.4506 193.994 39.9788 195.201C39.212 195.831 38.8792 196.497 38.9804 197.201C39.0592 197.902 39.469 198.704 40.21 199.607L41.4433 201.109L45.6731 197.638Z" fill="white"/>
<path d="M33.9264 175.42L32.1034 176.281L29.6646 171.115L31.4877 170.255L33.9264 175.42Z" fill="white"/>
<path d="M29.3439 146.292C29.5947 147.58 29.5162 148.809 29.1086 149.981C28.701 151.152 27.9694 152.167 26.9138 153.024C25.8395 153.869 24.4542 154.457 22.7581 154.787C21.0776 155.114 19.5795 155.08 18.2636 154.684C16.9289 154.276 15.8435 153.598 15.0074 152.653C14.1555 151.71 13.6042 150.595 13.3535 149.307C13.1639 148.334 13.1921 147.432 13.4379 146.601C13.6838 145.771 14.0184 145.062 14.4419 144.474L16.4931 145.591C16.1612 146.063 15.9249 146.565 15.7841 147.098C15.6245 147.618 15.6029 148.177 15.7191 148.773C15.8811 149.606 16.2541 150.307 16.838 150.878C17.4031 151.437 18.1385 151.823 19.0443 152.038C19.947 152.237 20.9794 152.224 22.1416 151.997C23.9006 151.655 25.2077 151.001 26.063 150.036C26.9026 149.074 27.197 147.949 26.9463 146.661C26.8117 145.97 26.5511 145.385 26.1645 144.906C25.7621 144.43 25.2825 144.018 24.7258 143.67L26.1611 141.875C27.0058 142.362 27.704 142.976 28.2557 143.716C28.7885 144.444 29.1513 145.302 29.3439 146.292Z" fill="white"/>
<path d="M27.4792 128.159C27.4739 129.519 27.1413 130.717 26.4813 131.755C25.8053 132.792 24.8581 133.605 23.6399 134.192C22.4056 134.763 20.9405 135.046 19.2446 135.039C17.5486 135.032 16.1017 134.739 14.9039 134.158C13.7062 133.562 12.7894 132.742 12.1534 131.7C11.5174 130.657 11.202 129.456 11.2073 128.096C11.2126 126.72 11.5373 125.513 12.1813 124.476C12.8253 123.438 13.7484 122.634 14.9506 122.062C16.1529 121.475 17.602 121.185 19.298 121.191C20.994 121.198 22.4568 121.499 23.6865 122.096C24.9003 122.677 25.8412 123.488 26.5092 124.531C27.1612 125.574 27.4845 126.783 27.4792 128.159ZM25.0552 128.149C25.0599 126.917 24.5438 125.931 23.5066 125.191C22.4534 124.451 21.0469 124.078 19.2869 124.071C17.5269 124.064 16.1495 124.427 15.1547 125.159C14.1438 125.891 13.636 126.873 13.6313 128.105C13.6265 129.337 14.1267 130.323 15.1319 131.063C16.121 131.803 17.4956 132.176 19.2556 132.183C21.0156 132.19 22.425 131.827 23.4838 131.095C24.5266 130.363 25.0504 129.381 25.0552 128.149Z" fill="white"/>
<path d="M27.6483 114.287L12.3143 110.935L12.9857 107.863L21.0831 106.784C21.6052 106.718 22.1413 106.663 22.6913 106.619C23.229 106.557 23.7651 106.502 24.2994 106.455L24.3199 106.361C23.8573 106.08 23.393 105.806 22.927 105.541C22.4453 105.272 21.9793 105.006 21.5289 104.744L14.6052 100.454L15.2817 97.3594L30.6156 100.711L30.0673 103.22L23.0568 101.687C22.5722 101.582 22.052 101.451 21.4961 101.297C20.928 101.124 20.3599 100.951 19.7918 100.777C19.2272 100.588 18.7155 100.419 18.2568 100.27L18.2363 100.364L21.5285 102.385L27.8734 106.401L27.5198 108.019L20.0731 109.044L16.2427 109.484L16.2222 109.578C16.7014 109.634 17.2353 109.701 17.8239 109.781C18.4159 109.845 19.0045 109.924 19.5897 110.019C20.1626 110.095 20.6914 110.186 21.1759 110.292L28.1864 111.825L27.6483 114.287Z" fill="white"/>
<path d="M33.1066 93.2364L18.5387 87.3932L19.5751 84.8093L34.143 90.6525L33.1066 93.2364Z" fill="white"/>
<path d="M37.1501 83.1709L23.6655 75.1379L25.1271 72.6842L35.2205 72.9981L38.9095 73.324L38.9586 73.2415C38.2385 72.8871 37.4485 72.5095 36.5883 72.1089C35.7364 71.6945 34.9324 71.2621 34.1764 70.8117L28.3207 67.3234L29.6841 65.0347L43.1687 73.0677L41.707 75.5214L31.6136 75.2075L27.9247 74.8816L27.8756 74.9641C28.6231 75.3349 29.4091 75.7193 30.2335 76.1173C31.0662 76.5016 31.8605 76.9189 32.6165 77.3693L38.5135 80.8822L37.1501 83.1709Z" fill="white"/>
<path d="M52.467 61.5318C51.5233 62.5767 50.4446 63.3057 49.2308 63.7187C48.0171 64.1317 46.7504 64.1735 45.4309 63.8442C44.0995 63.5042 42.7926 62.7551 41.5101 61.5969C40.2396 60.4495 39.3729 59.2248 38.9101 57.923C38.4355 56.6104 38.336 55.324 38.6117 54.0639C38.8755 52.793 39.4739 51.641 40.4068 50.6079C41.1575 49.7767 41.9446 49.2155 42.768 48.9244C43.5904 48.6106 44.3577 48.4413 45.0701 48.4163L45.4087 50.7271C44.8556 50.7666 44.3179 50.8846 43.7954 51.0811C43.2719 51.255 42.7634 51.6151 42.2701 52.1613C41.3372 53.1944 40.9611 54.3747 41.142 55.7022C41.3217 57.0072 42.0647 58.2495 43.3709 59.4291C44.7008 60.6301 46.0192 61.271 47.3261 61.3517C48.6211 61.4218 49.7941 60.8749 50.845 59.7112C51.1452 59.3787 51.3879 59.0265 51.5728 58.6546C51.7459 58.2719 51.8352 57.9106 51.8405 57.5704L49.3291 55.3024L47.3344 57.511L45.6423 55.9829L49.3099 51.9218L54.4396 56.5545C54.4776 57.3002 54.3382 58.123 54.0215 59.0227C53.7037 59.8998 53.1855 60.7362 52.467 61.5318Z" fill="white"/>
<path d="M72.4282 44.3751C71.5331 44.9354 70.559 45.3092 69.5059 45.4966C68.4664 45.6754 67.4327 45.6524 66.4048 45.4276L66.782 42.9545C67.5369 43.1049 68.3086 43.1315 69.0971 43.0343C69.8772 42.9235 70.5724 42.677 71.1827 42.295C71.9421 41.8196 72.4209 41.3028 72.6189 40.7447C72.817 40.1865 72.7547 39.6498 72.4321 39.1345C72.084 38.5784 71.6369 38.3015 71.0908 38.3035C70.5582 38.2971 69.9129 38.3519 69.1549 38.4677L66.8274 38.8205C66.2746 38.9023 65.6946 38.9256 65.0874 38.8904C64.4937 38.8468 63.917 38.6793 63.3571 38.388C62.8108 38.0882 62.3338 37.6128 61.9263 36.9618C61.4849 36.2566 61.28 35.5071 61.3116 34.7134C61.3483 33.8976 61.5971 33.1189 62.0579 32.3774C62.5237 31.6139 63.1906 30.9605 64.0586 30.4171C64.8316 29.9332 65.6751 29.6222 66.5892 29.4842C67.4947 29.3326 68.3665 29.3532 69.2045 29.5459L68.9466 31.8026C68.3054 31.7132 67.6839 31.7153 67.0818 31.8091C66.4934 31.8943 65.9144 32.1152 65.3448 32.4717C64.7209 32.8623 64.3015 33.323 64.0865 33.854C63.8766 34.363 63.9244 34.8616 64.23 35.3498C64.4423 35.6889 64.7155 35.9142 65.0497 36.0259C65.3889 36.1156 65.7723 36.1399 66.1996 36.0989C66.6185 36.0443 67.0577 35.977 67.5173 35.8969L69.799 35.5162C70.7978 35.3629 71.7221 35.4072 72.572 35.6491C73.4134 35.8774 74.1355 36.4731 74.7382 37.436C75.1882 38.1547 75.4101 38.9313 75.4039 39.7658C75.3977 40.6002 75.1498 41.4255 74.6603 42.2416C74.1758 43.0357 73.4318 43.7469 72.4282 44.3751Z" fill="white"/>
<path d="M88.967 35.739C87.6992 36.2311 86.4618 36.3595 85.2549 36.1242C84.0422 35.8741 82.9399 35.2893 81.9481 34.3698C80.9653 33.4297 80.1672 32.1691 79.5535 30.588C78.9399 29.0069 78.6844 27.5528 78.7872 26.2257C78.905 24.8928 79.3328 23.7399 80.0708 22.767C80.8087 21.794 81.8117 21.0615 83.0795 20.5695C84.3623 20.0716 85.6042 19.9329 86.8053 20.1532C88.0064 20.3735 89.0926 20.9389 90.0637 21.8492C91.0498 22.7537 91.8497 23.9965 92.4633 25.5776C93.0769 27.1587 93.3307 28.6306 93.2246 29.9933C93.1276 31.3353 92.7159 32.5077 91.9895 33.5105C91.2573 34.4983 90.2498 35.2412 88.967 35.739ZM88.09 33.4793C89.2385 33.0335 89.9677 32.1927 90.2775 30.9569C90.5816 29.7061 90.4152 28.2603 89.7784 26.6196C89.1416 24.9788 88.3007 23.8292 87.2556 23.1707C86.2048 22.4973 85.1051 22.3835 83.9566 22.8292C82.808 23.275 82.0731 24.1009 81.7516 25.3069C81.4244 26.498 81.5792 27.9139 82.216 29.5547C82.8528 31.1954 83.7053 32.3749 84.7735 33.093C85.836 33.7963 86.9414 33.925 88.09 33.4793Z" fill="white"/>
<path d="M108.189 30.1324C106.848 30.3565 105.61 30.2307 104.476 29.755C103.34 29.2635 102.379 28.4669 101.595 27.365C100.824 26.2448 100.299 24.8482 100.019 23.1754C99.74 21.5026 99.7854 20.0269 100.156 18.7484C100.542 17.4673 101.195 16.4254 102.116 15.6228C103.036 14.8202 104.167 14.3069 105.508 14.0828C106.865 13.8561 108.11 13.9727 109.241 14.4326C110.372 14.8925 111.321 15.6668 112.087 16.7555C112.868 17.8415 113.399 19.221 113.678 20.8938C113.958 22.5666 113.907 24.0594 113.526 25.3721C113.158 26.6664 112.517 27.7306 111.602 28.5648C110.684 29.3832 109.546 29.9057 108.189 30.1324ZM107.79 27.7415C109.005 27.5386 109.89 26.8635 110.445 25.7165C110.996 24.5537 111.127 23.1043 110.837 21.3683C110.548 19.6324 109.958 18.3358 109.068 17.4786C108.176 16.6057 107.123 16.2707 105.908 16.4737C104.693 16.6766 103.805 17.3359 103.245 18.4514C102.683 19.5511 102.546 20.9689 102.836 22.7049C103.126 24.4408 103.721 25.7689 104.621 26.6892C105.519 27.5938 106.575 27.9445 107.79 27.7415Z" fill="white"/>
<path d="M122.21 28.0091L122.815 12.3248L125.669 12.435L130.221 21.4494L131.699 24.8449L131.795 24.8486C131.761 24.0467 131.715 23.1723 131.656 22.2253C131.612 21.2789 131.607 20.3661 131.641 19.4867L131.904 12.6758L134.566 12.7786L133.961 28.4629L131.107 28.3527L126.555 19.3384L125.077 15.9428L124.981 15.9391C125.013 16.773 125.051 17.6471 125.096 18.5615C125.157 19.4765 125.17 20.3737 125.136 21.253L124.872 28.1119L122.21 28.0091Z" fill="white"/>
<path d="M151.755 26.2729L152.341 24.344L157.806 26.0043L157.22 27.9333L151.755 26.2729Z" fill="white"/>
<path d="M171.465 39.1802L179.097 25.4647L181.529 26.8184L173.897 40.5339L171.465 39.1802Z" fill="white"/>
<path d="M180.689 44.3903L190.198 31.9024L194.418 35.1157C195.283 35.7748 195.972 36.4807 196.485 37.2332C197.011 37.9955 197.263 38.8005 197.241 39.6484C197.241 40.4932 196.887 41.3803 196.18 42.3095C195.453 43.2643 194.637 43.8599 193.733 44.0965C192.841 44.3429 191.923 44.3074 190.978 43.9901L189.988 51.471L187.505 49.5809L188.535 42.6426L186.626 41.1887L182.904 46.0768L180.689 44.3903ZM187.963 39.432L189.739 40.7841C190.592 41.4336 191.377 41.7497 192.094 41.7325C192.833 41.7123 193.47 41.3522 194.003 40.652C194.546 39.9392 194.694 39.2682 194.449 38.6392C194.227 38.0072 193.689 37.3664 192.836 36.717L191.06 35.3648L187.963 39.432Z" fill="white"/>
<path d="M194.996 55.7894L206.721 45.3543L208.572 47.434L203.857 51.6303L208.085 56.3813L212.8 52.185L214.651 54.2646L202.926 64.6996L201.075 62.62L206.274 57.9928L202.046 53.2419L196.847 57.869L194.996 55.7894Z" fill="white"/>
<path d="M216.643 69.5616L214.713 70.0771L216.776 73.5129L218.138 72.051C218.719 71.4031 219.325 70.7497 219.956 70.0908C220.595 69.4457 221.227 68.8046 221.853 68.1677L221.803 68.0854C220.942 68.3602 220.072 68.6214 219.194 68.8688C218.338 69.1217 217.488 69.3526 216.643 69.5616ZM206.777 69.3569L222.864 65.6564L224.545 68.4544L213.722 80.9191L212.214 78.4092L215.226 75.1724L212.507 70.6463L208.235 71.7845L206.777 69.3569Z" fill="white"/>
<path d="M216.945 87.8724L222.366 85.7216L229.8 77.7114L230.898 80.4777L227.801 83.5397C227.333 83.9662 226.88 84.3868 226.442 84.8016C226.019 85.2104 225.572 85.6459 225.102 86.1081L225.137 86.1973C225.797 86.211 226.423 86.2291 227.018 86.2516C227.627 86.2682 228.248 86.2714 228.88 86.2613L233.234 86.367L234.305 89.0663L223.393 88.3094L217.972 90.4602L216.945 87.8724Z" fill="white"/>
<path d="M228.41 108.182L230.406 107.903L231.196 113.56L229.199 113.839L228.41 108.182Z" fill="white"/>
</svg>
