<svg width="253" height="253" viewBox="0 0 253 253" fill="none" xmlns="http://www.w3.org/2000/svg">
<path d="M225.178 128.295L240.828 129.505L240.099 138.933L237.754 138.752L238.268 132.099L234.272 131.791L233.837 137.414L231.492 137.233L231.927 131.609L227.309 131.252L226.776 138.144L224.431 137.963L225.178 128.295Z" fill="white"/>
<path d="M230.937 149.174L229.206 148.178L228.246 152.07L230.242 151.993C231.111 151.944 232.002 151.908 232.913 151.886C233.821 151.879 234.722 151.871 235.614 151.86L235.637 151.767C234.833 151.354 234.032 150.926 233.235 150.482C232.45 150.058 231.684 149.622 230.937 149.174ZM224.087 142.071L238.102 150.793L237.32 153.962L220.857 155.166L221.558 152.323L225.976 152.152L227.24 147.026L223.409 144.82L224.087 142.071Z" fill="white"/>
<path d="M216.969 164.562C217.394 163.596 217.99 162.74 218.756 161.993C219.516 161.261 220.384 160.7 221.361 160.308L222.438 162.566C221.729 162.866 221.075 163.277 220.478 163.801C219.895 164.33 219.458 164.925 219.167 165.584C218.806 166.404 218.7 167.1 218.85 167.673C219 168.246 219.353 168.655 219.909 168.9C220.509 169.165 221.035 169.143 221.485 168.834C221.93 168.541 222.433 168.133 222.995 167.611L224.722 166.012C225.134 165.634 225.601 165.289 226.123 164.977C226.638 164.68 227.21 164.494 227.836 164.421C228.457 164.362 229.118 164.487 229.821 164.797C230.583 165.133 231.173 165.638 231.593 166.312C232.021 167.008 232.252 167.792 232.287 168.664C232.331 169.557 232.146 170.472 231.733 171.41C231.365 172.244 230.842 172.975 230.163 173.603C229.499 174.237 228.766 174.709 227.965 175.021L226.911 173.009C227.491 172.723 228.005 172.372 228.45 171.956C228.889 171.555 229.244 171.047 229.515 170.432C229.812 169.759 229.9 169.142 229.78 168.582C229.667 168.043 229.348 167.657 228.821 167.425C228.455 167.263 228.102 167.23 227.763 167.326C227.432 167.442 227.101 167.637 226.77 167.911C226.454 168.192 226.129 168.494 225.794 168.818L224.12 170.415C223.379 171.103 222.59 171.585 221.751 171.863C220.926 172.146 219.994 172.059 218.955 171.601C218.179 171.259 217.559 170.741 217.096 170.047C216.632 169.353 216.374 168.531 216.32 167.581C216.275 166.652 216.491 165.646 216.969 164.562Z" fill="white"/>
<path d="M210.383 177.978L215.257 181.18L226.084 182.666L224.45 185.153L220.165 184.376C219.547 184.238 218.942 184.109 218.351 183.989C217.774 183.877 217.161 183.761 216.512 183.641L216.459 183.722C216.827 184.269 217.172 184.793 217.495 185.292C217.831 185.8 218.185 186.311 218.557 186.823L220.971 190.448L219.376 192.875L213.729 183.507L208.855 180.304L210.383 177.978Z" fill="white"/>
<path d="M191.547 199.871C192.576 198.982 193.698 198.445 194.914 198.261C196.14 198.09 197.375 198.27 198.618 198.803C199.859 199.359 201.034 200.278 202.143 201.561C203.252 202.845 203.981 204.128 204.33 205.413C204.667 206.708 204.651 207.938 204.283 209.102C203.914 210.266 203.216 211.293 202.187 212.182C201.146 213.082 200.022 213.63 198.817 213.826C197.612 214.021 196.399 213.854 195.178 213.322C193.946 212.802 192.775 211.9 191.666 210.616C190.557 209.333 189.824 208.032 189.466 206.713C189.107 205.416 189.101 204.174 189.448 202.985C189.806 201.809 190.506 200.771 191.547 199.871ZM193.132 201.705C192.2 202.51 191.795 203.547 191.918 204.815C192.052 206.096 192.694 207.402 193.845 208.733C194.996 210.065 196.174 210.865 197.38 211.135C198.596 211.416 199.67 211.154 200.602 210.348C201.534 209.543 201.949 208.518 201.847 207.274C201.755 206.042 201.133 204.76 199.983 203.429C198.832 202.097 197.633 201.273 196.385 200.955C195.148 200.649 194.064 200.899 193.132 201.705Z" fill="white"/>
<path d="M180.758 208.803L188.491 222.462L186.005 223.869L177.394 218.596L174.351 216.485L174.267 216.532C174.717 217.197 175.216 217.916 175.765 218.69C176.3 219.472 176.784 220.246 177.217 221.012L180.575 226.943L178.257 228.256L170.524 214.597L173.009 213.19L181.621 218.463L184.664 220.574L184.748 220.527C184.282 219.835 183.79 219.111 183.271 218.357C182.738 217.611 182.255 216.855 181.821 216.089L178.439 210.116L180.758 208.803Z" fill="white"/>
<path d="M154.879 221.025L158.23 236.359L155.159 237.03L150.799 230.122C150.521 229.675 150.248 229.211 149.979 228.729C149.698 228.267 149.424 227.802 149.158 227.336L149.065 227.357C149.002 227.894 148.947 228.431 148.9 228.965C148.857 229.515 148.81 230.049 148.759 230.568L147.75 238.65L144.655 239.326L141.303 223.992L143.812 223.444L145.344 230.455C145.45 230.939 145.549 231.466 145.641 232.036C145.72 232.624 145.8 233.213 145.879 233.802C145.943 234.394 146.003 234.929 146.059 235.408L146.152 235.388L146.616 231.552L147.618 224.111L149.236 223.757L153.275 230.097L155.273 233.394L155.367 233.374C155.217 232.915 155.056 232.402 154.883 231.834C154.694 231.269 154.521 230.701 154.363 230.129C154.193 229.577 154.055 229.058 153.949 228.574L152.417 221.563L154.879 221.025Z" fill="white"/>
<path d="M134.194 224.769L134.618 240.459L125.165 240.714L125.102 238.363L131.771 238.183L131.663 234.176L126.025 234.329L125.962 231.978L131.6 231.825L131.474 227.195L124.565 227.382L124.501 225.031L134.194 224.769Z" fill="white"/>
<path d="M108.616 228.58L108.208 230.554L102.614 229.399L103.022 227.424L108.616 228.58Z" fill="white"/>
<path d="M83.672 215.077C84.8908 215.68 85.8207 216.507 86.4617 217.556C87.0956 218.62 87.4081 219.828 87.3991 221.18C87.3687 222.54 86.9773 223.979 86.2248 225.499C85.4724 227.019 84.5718 228.189 83.5232 229.009C82.4603 229.822 81.3208 230.284 80.1048 230.397C78.8888 230.509 77.6714 230.263 76.4526 229.66C75.2194 229.049 74.2788 228.226 73.6307 227.191C72.9826 226.156 72.6667 224.973 72.6829 223.642C72.6848 222.304 73.0619 220.875 73.8144 219.355C74.5669 217.836 75.4817 216.655 76.5588 215.813C77.6145 214.979 78.7575 214.492 79.9877 214.351C81.2107 214.224 82.4389 214.466 83.672 215.077ZM82.5966 217.249C81.4925 216.703 80.3799 216.732 79.2589 217.338C78.1308 217.957 77.1763 219.056 76.3954 220.633C75.6146 222.211 75.3339 223.607 75.5533 224.823C75.7657 226.052 76.4239 226.941 77.5281 227.487C78.6322 228.034 79.7376 228.019 80.8444 227.442C81.9442 226.879 82.8844 225.81 83.6653 224.232C84.4462 222.655 84.7411 221.23 84.55 219.957C84.3518 218.698 83.7007 217.796 82.5966 217.249Z" fill="white"/>
<path d="M66.7807 204.8C67.7301 205.534 68.4125 206.365 68.8278 207.292C69.2431 208.22 69.324 209.254 69.0706 210.392C68.8045 211.521 68.1479 212.763 67.1009 214.118L61.7139 221.086L59.5113 219.383L65.0304 212.244C65.7251 211.345 66.1768 210.552 66.3852 209.864C66.5712 209.178 66.5624 208.575 66.3588 208.053C66.1454 207.545 65.7919 207.099 65.2982 206.718C64.7918 206.326 64.2656 206.091 63.7195 206.013C63.1509 205.938 62.5585 206.076 61.942 206.429C61.3032 206.784 60.6364 207.411 59.9416 208.31L54.4225 215.45L52.3148 213.82L57.7018 206.852C58.7489 205.497 59.7852 204.549 60.8108 204.007C61.8365 203.465 62.8505 203.278 63.8529 203.447C64.8427 203.605 65.8187 204.056 66.7807 204.8Z" fill="white"/>
<path d="M54.5259 194.299L44.6227 203.242L47.6629 206.609L45.9173 208.185L37.971 199.386L39.7166 197.81L42.7568 201.176L52.66 192.233L54.5259 194.299Z" fill="white"/>
<path d="M40.3628 175.775L26.2704 182.686L25.0128 180.122L30.7865 171.837L33.0736 168.924L33.0313 168.838C32.3412 169.248 31.5936 169.704 30.7883 170.206C29.976 170.693 29.1747 171.131 28.3847 171.518L22.2651 174.52L21.092 172.128L35.1843 165.216L36.4419 167.78L30.6682 176.065L28.3811 178.978L28.4234 179.064C29.1422 178.64 29.8934 178.192 30.677 177.718C31.4536 177.23 32.2369 176.793 33.027 176.405L39.1897 173.383L40.3628 175.775Z" fill="white"/>
<path d="M31.1214 152.505C31.4671 153.82 31.455 155.064 31.0849 156.237C30.6994 157.413 29.9939 158.442 28.9683 159.324C27.9232 160.194 26.5806 160.845 24.9403 161.276C23.3 161.707 21.8264 161.797 20.5194 161.545C19.2083 161.278 18.1111 160.722 17.2277 159.879C16.3443 159.036 15.7298 157.957 15.384 156.641C15.0342 155.311 15.0366 154.061 15.3912 152.893C15.7457 151.724 16.4301 150.709 17.4442 149.846C18.4543 148.969 19.7795 148.314 21.4197 147.883C23.06 147.452 24.5512 147.366 25.8932 147.626C27.2157 147.873 28.3341 148.415 29.2484 149.25C30.1472 150.089 30.7716 151.174 31.1214 152.505ZM28.777 153.121C28.4638 151.929 27.7107 151.11 26.5178 150.663C25.3094 150.219 23.8541 150.221 22.1519 150.669C20.4497 151.116 19.2125 151.822 18.4402 152.786C17.6524 153.754 17.4152 154.834 17.7284 156.025C18.0416 157.217 18.7792 158.04 19.9412 158.496C21.0877 158.955 22.512 158.962 24.2142 158.514C25.9164 158.067 27.1846 157.353 28.0188 156.373C28.8375 155.396 29.0902 154.312 28.777 153.121Z" fill="white"/>
<path d="M27.6143 137.362L12.0504 141.085L11.9402 138.231L19.8015 136.559C20.628 136.399 21.4624 136.238 22.3048 136.078C23.1307 135.902 23.9571 135.742 24.7842 135.598L24.7805 135.502C23.9423 135.358 23.1044 135.222 22.2669 135.094C21.4127 134.951 20.5665 134.808 19.7284 134.664L11.7402 133.051L11.6467 130.629L19.4867 128.405C20.2953 128.197 21.1199 127.989 21.9605 127.781C22.785 127.573 23.6176 127.364 24.4582 127.156L24.4545 127.06C23.6022 126.965 22.7579 126.869 21.9216 126.773C21.0852 126.678 20.2492 126.59 19.4135 126.51L11.4466 125.449L11.3439 122.787L27.1439 125.179L27.2773 128.632L19.1024 130.893C18.4998 131.045 17.8972 131.196 17.2946 131.347C16.6914 131.483 16.0958 131.61 15.508 131.729L15.5117 131.825C16.1076 131.914 16.7117 132.01 17.3242 132.115C17.9361 132.203 18.5483 132.3 19.1608 132.404L27.4838 133.98L27.6143 137.362Z" fill="white"/>
<path d="M30.9555 100.189C30.5799 101.496 29.9333 102.559 29.0156 103.378C28.0825 104.192 26.9499 104.715 25.6177 104.948C24.2745 105.162 22.7879 105.034 21.1579 104.566C19.5278 104.097 18.2157 103.421 17.2214 102.536C16.2316 101.635 15.5727 100.597 15.2448 99.4208C14.9169 98.2445 14.9407 97.0028 15.3163 95.6956C15.6963 94.3732 16.3375 93.3005 17.2398 92.4777C18.1421 91.6549 19.2495 91.1324 20.5619 90.9102C21.8787 90.6726 23.3521 90.788 24.9822 91.2563C26.6122 91.7247 27.9375 92.4135 28.9581 93.3227C29.9678 94.2121 30.6519 95.2494 31.0106 96.4345C31.3539 97.6153 31.3355 98.8669 30.9555 100.189ZM28.6258 99.5199C28.966 98.3358 28.738 97.2465 27.9417 96.2519C27.13 95.2529 25.8784 94.5104 24.1868 94.0243C22.4953 93.5383 21.0712 93.512 19.9145 93.9454C18.7424 94.3744 17.9863 95.181 17.646 96.3651C17.3058 97.5492 17.5185 98.6341 18.284 99.6198C19.0342 100.601 20.255 101.335 21.9466 101.821C23.6382 102.307 25.093 102.342 26.3112 101.926C27.514 101.506 28.2856 100.704 28.6258 99.5199Z" fill="white"/>
<path d="M35.0025 86.9456L21.0673 79.7224L22.3817 77.1868L32.476 76.9045L36.1777 77.0121L36.2219 76.9269C35.4822 76.6155 34.6712 76.2853 33.7889 75.9361C32.914 75.5727 32.0859 75.1885 31.3047 74.7835L25.2533 71.6468L26.4793 69.2816L40.4144 76.5049L39.1001 79.0405L29.0058 79.3228L25.304 79.2152L25.2598 79.3004C26.028 79.6265 26.8353 79.9638 27.6818 80.3125C28.5356 80.647 29.3532 81.0167 30.1345 81.4217L36.2285 84.5805L35.0025 86.9456Z" fill="white"/>
<path d="M46.0973 54.6132L47.115 56.3324L49.8655 53.4171L48.0902 52.501C47.3093 52.1162 46.5165 51.7092 45.7117 51.2798C44.9179 50.8389 44.13 50.4034 43.3478 49.9734L43.2819 50.0432C43.7793 50.7984 44.2656 51.5652 44.741 52.3437C45.2157 53.0996 45.6678 53.8561 46.0973 54.6132ZM48.5652 64.1679L40.6567 49.6781L42.8967 47.304L57.8215 54.3572L55.8121 56.4869L51.8823 54.462L48.2589 58.3025L50.5087 62.108L48.5652 64.1679Z" fill="white"/>
<path d="M62.174 50.4274L52.7107 37.905L54.9318 36.2265L62.977 46.8725L68.1851 42.9367L69.6032 44.8131L62.174 50.4274Z" fill="white"/>
<path d="M74.6759 41.3914L67.2984 27.5372L69.7558 26.2287L76.0277 38.0068L81.7897 34.9385L82.8952 37.0145L74.6759 41.3914Z" fill="white"/>
<path d="M97.6655 31.1012L94.1387 15.8065L98.9563 14.6956C100.094 14.4332 101.142 14.3476 102.099 14.4389C103.056 14.5302 103.871 14.8596 104.543 15.4269C105.216 15.9943 105.689 16.8704 105.962 18.0553C106.221 19.1779 106.178 20.1648 105.832 21.0163C105.487 21.8677 104.919 22.5733 104.128 23.1332C103.338 23.6932 102.389 24.1007 101.282 24.356L99.0841 24.8629L100.378 30.4756L97.6655 31.1012ZM98.5826 22.688L100.57 22.2296C102.815 21.7119 103.724 20.5254 103.296 18.6701C103.073 17.7034 102.624 17.1091 101.949 16.8872C101.286 16.646 100.385 16.6566 99.2473 16.9191L97.353 17.3559L98.5826 22.688Z" fill="white"/>
<path d="M114.783 27.6395L113.875 11.9698L116.655 11.8088L117.427 25.1304L123.944 24.7528L124.08 27.1009L114.783 27.6395Z" fill="white"/>
<path d="M134.82 19.1005L134.064 20.9499L138.049 21.3817L137.707 19.4134C137.542 18.5586 137.388 17.6809 137.244 16.7802C137.116 15.8812 136.988 14.9901 136.858 14.107L136.762 14.0967C136.461 14.9491 136.143 15.7999 135.81 16.6489C135.494 17.4837 135.164 18.301 134.82 19.1005ZM128.695 26.8377L135.468 11.7838L138.713 12.1354L142.104 28.2908L139.193 27.9753L138.434 23.6202L133.185 23.0514L131.51 27.1428L128.695 26.8377Z" fill="white"/>
<path d="M150.576 30.1401L154.261 17.3151L149.902 16.0624L150.551 13.8019L161.946 17.076L161.297 19.3366L156.937 18.0839L153.252 30.909L150.576 30.1401Z" fill="white"/>
<path d="M163.983 34.4749L170.79 20.3316L179.332 24.4428L178.312 26.5621L172.279 23.6583L170.353 27.659L175.5 30.1361L174.48 32.2554L169.333 29.7783L166.492 35.6822L163.983 34.4749Z" fill="white"/>
<path d="M182.829 45.3269C181.729 44.5269 180.952 43.5558 180.497 42.4135C180.051 41.2583 179.947 40.0149 180.183 38.6833C180.442 37.3482 181.07 35.9948 182.068 34.6233C183.066 33.2518 184.15 32.2502 185.322 31.6187C186.507 30.9965 187.708 30.7325 188.925 30.8267C190.143 30.921 191.301 31.3681 192.401 32.1681C193.514 32.9775 194.303 33.9469 194.767 35.0762C195.232 36.2056 195.344 37.4249 195.104 38.7341C194.877 40.0528 194.264 41.3979 193.267 42.7694C192.269 44.1409 191.168 45.1507 189.965 45.7987C188.784 46.4433 187.575 46.7314 186.339 46.663C185.112 46.5817 183.942 46.1364 182.829 45.3269ZM184.255 43.3667C185.251 44.0914 186.353 44.2497 187.56 43.8417C188.776 43.4207 189.902 42.4985 190.938 41.0752C191.973 39.652 192.485 38.3227 192.473 37.0876C192.471 35.8395 191.972 34.8531 190.975 34.1283C189.979 33.4036 188.887 33.2324 187.699 33.6145C186.52 33.9838 185.413 34.8801 184.378 36.3033C183.342 37.7266 182.812 39.0817 182.786 40.3686C182.769 41.6426 183.259 42.642 184.255 43.3667Z" fill="white"/>
<path d="M194.129 53.9163L205.624 43.2281L209.235 47.1123C209.976 47.9091 210.535 48.7219 210.913 49.5508C211.301 50.3913 211.412 51.2275 211.246 52.0592C211.103 52.8918 210.603 53.7057 209.748 54.5011C208.869 55.3182 207.964 55.7665 207.033 55.8458C206.113 55.9369 205.214 55.7457 204.337 55.2723L202.088 62.4758L199.963 60.1909L202.159 53.5289L200.524 51.7713L196.025 55.9551L194.129 53.9163ZM202.141 50.2678L203.661 51.9024C204.391 52.6874 205.111 53.1325 205.82 53.2375C206.552 53.3434 207.24 53.0967 207.885 52.4974C208.541 51.8873 208.802 51.2515 208.667 50.5899C208.556 49.9293 208.135 49.2064 207.405 48.4213L205.885 46.7868L202.141 50.2678Z" fill="white"/>
<path d="M206.203 67.4058L219.568 59.1753L221.216 61.8524L216.137 68.2501C215.807 68.66 215.459 69.0715 215.093 69.4846C214.749 69.903 214.402 70.3145 214.049 70.7192L214.1 70.801C214.628 70.6824 215.152 70.5569 215.672 70.4247C216.205 70.2841 216.725 70.1518 217.232 70.028L225.193 68.3101L226.854 71.0076L213.489 79.2381L212.143 77.0515L218.253 73.2886C218.675 73.0285 219.14 72.7611 219.647 72.4863C220.177 72.2167 220.706 71.9472 221.235 71.6776C221.773 71.4217 222.259 71.1883 222.692 70.9775L222.642 70.8957L218.869 71.7255L211.514 73.2388L210.646 71.8288L215.295 65.9218L217.747 62.9462L217.696 62.8645C217.313 63.157 216.882 63.479 216.403 63.8303C215.932 64.1952 215.453 64.5465 214.966 64.8842C214.501 65.2271 214.057 65.5286 213.634 65.7886L207.524 69.5515L206.203 67.4058Z" fill="white"/>
<path d="M217.995 90.0447C217.624 89.056 217.451 88.027 217.477 86.9577C217.509 85.9034 217.737 84.8949 218.162 83.9323L220.511 84.7942C220.213 85.504 220.034 86.2549 219.972 87.0471C219.925 87.8336 220.028 88.5639 220.281 89.238C220.596 90.0769 221.007 90.6489 221.515 90.9541C222.022 91.2592 222.561 91.305 223.13 91.0914C223.744 90.861 224.105 90.4779 224.211 89.9423C224.323 89.4217 224.398 88.7784 224.436 88.0125L224.553 85.6614C224.583 85.1033 224.675 84.5302 224.831 83.9422C224.992 83.3691 225.271 82.8372 225.668 82.3465C226.07 81.8708 226.631 81.498 227.35 81.2282C228.129 80.9359 228.904 80.8843 229.676 81.0733C230.468 81.2716 231.181 81.6704 231.816 82.2695C232.472 82.878 232.98 83.6616 233.339 84.6203C233.66 85.4742 233.797 86.3627 233.75 87.286C233.718 88.2036 233.525 89.0538 233.169 89.8366L231.009 89.1348C231.224 88.5243 231.346 87.9147 231.374 87.3061C231.407 86.7124 231.306 86.101 231.07 85.4719C230.811 84.7828 230.443 84.2801 229.966 83.9637C229.509 83.6566 229.011 83.6043 228.471 83.8067C228.097 83.9472 227.821 84.1701 227.646 84.4754C227.49 84.79 227.39 85.1608 227.345 85.5878C227.315 86.0091 227.294 86.453 227.281 86.9192L227.2 89.2311C227.151 90.2404 226.924 91.1375 226.518 91.9222C226.127 92.7013 225.399 93.2904 224.336 93.6895C223.542 93.9874 222.736 94.0503 221.92 93.8782C221.103 93.706 220.344 93.2989 219.641 92.6567C218.96 92.0239 218.411 91.1532 217.995 90.0447Z" fill="white"/>
<path d="M228.804 109.161L230.805 108.913L231.508 114.582L229.507 114.83L228.804 109.161Z" fill="white"/>
</svg>
